<svg width="34" height="34" viewBox="0 0 34 34" fill="none" xmlns="http://www.w3.org/2000/svg">
<path d="M17 0C7.61153 0 0 7.61122 0 17C0 26.3885 7.61153 33.999 17 33.999C26.3885 33.999 34 26.3881 34 17C34 7.61122 26.3889 0 17 0Z" fill="#0C234B"/>
<path d="M17.0004 33.7067C7.77508 33.7067 0.297214 26.2267 0.297214 17.0014C0.297011 7.7766 7.77508 0.297214 17.0004 0.297214C26.226 0.297214 33.7046 7.7766 33.7046 17.0014C33.7046 26.2263 26.2257 33.7056 17.0004 33.7056V33.7067Z" fill="white"/>
<path d="M17.0006 0.754767C8.02832 0.754767 0.754767 8.02853 0.754767 17.0006C0.754767 25.9728 8.02863 33.2464 17.0006 33.2464C25.9728 33.2464 33.2464 25.973 33.2464 17.0006C33.2464 8.02833 25.9724 0.754767 17.0006 0.754767Z" fill="#0C234B"/>
<path d="M29.0953 16.9997C29.0953 10.3193 23.6794 4.90403 16.9996 4.90403C10.3196 4.90403 4.90394 10.3189 4.90394 16.9997C4.90394 23.6803 10.3191 29.0954 16.9996 29.0954C23.6796 29.0954 29.0953 23.6807 29.0953 16.9997Z" fill="white"/>
<path d="M17.0019 27.7468C11.0671 27.7468 6.25714 22.9359 6.25714 17.0019C6.25714 11.0678 11.0672 6.25714 17.0019 6.25714C22.9369 6.25714 27.7468 11.0677 27.7468 17.0019C27.7468 22.9361 22.9366 27.7468 17.0019 27.7468Z" fill="#AB0520"/>
<path d="M16.9986 6.4996C11.1986 6.4996 6.49569 11.2022 6.49569 17.0025C6.49569 22.8032 11.1989 27.5054 16.9986 27.5054C22.7993 27.5054 27.5015 22.8034 27.5015 17.0025C27.5015 11.2018 22.7989 6.4996 16.9986 6.4996Z" fill="white"/>
<path d="M16.9989 6.81246C14.6514 6.81246 12.3586 7.6285 10.5422 9.11053C8.75153 10.5718 7.49785 12.6128 7.01027 14.8591L6.97831 15.0042H8.69558H16.8575H17.1926H25.3039H27.0184L26.9868 14.8591C26.4998 12.6133 25.2461 10.5716 23.4563 9.11064C21.6401 7.62856 19.3472 6.81256 16.9983 6.81256L16.9989 6.81246ZM6.95324 18.9427L6.98263 19.0852C7.44572 21.3609 8.69269 23.4329 10.4937 24.9204C12.318 26.4281 14.6287 27.2582 16.999 27.2582C19.37 27.2582 21.6813 26.4281 23.5062 24.9204C25.3066 23.4324 26.5534 21.3603 27.0159 19.0852L27.0461 18.9427H26.899H6.95324Z" fill="#AB0520"/>
<path d="M10.829 15.5492C11.0177 15.8475 10.963 16.2776 10.9463 16.6457C10.9235 16.8812 10.6574 16.7557 10.5473 16.8813L7.75104 16.9118L7.64107 16.9668C7.6183 17.0532 7.62562 17.1317 7.7044 17.1784L10.5788 17.1943C11.0332 17.3199 10.8057 17.8597 10.9238 18.1893L10.9786 18.2592C11.0181 18.2826 11.0793 18.2912 11.1194 18.2592C11.2676 18.0164 11.1822 17.6714 11.229 17.3899C11.2062 17.1942 11.3935 17.0452 11.2841 16.865C11.2448 16.3792 11.2368 15.8471 10.8291 15.549L10.829 15.5492ZM25.0378 15.5729C24.9364 15.5886 24.835 15.6119 24.7637 15.6983C24.5214 16.0039 24.2625 16.3562 23.989 16.6068C23.6988 16.7716 23.4871 16.4185 23.1896 16.4422C22.3362 16.4343 21.7097 16.967 20.9103 17.0844C20.7302 17.0609 20.5032 17.1553 20.3852 16.9749C20.2524 16.9907 20.1117 16.8264 20.0181 16.9828C19.9475 17.202 20.0496 17.4449 20.1903 17.5937C20.2602 17.5698 20.237 17.4529 20.3231 17.4136C20.5499 17.3903 20.8009 17.4369 21.0364 17.3822C21.7964 17.2488 22.4531 16.7243 23.2836 16.9121C23.3538 16.9592 23.4637 17.0141 23.4484 17.1237C22.9153 17.406 22.6416 17.9384 22.1868 18.3062L22.2108 18.3383C22.7826 18.3383 23.3778 18.299 23.9577 18.3383L24.0911 18.3062C24.0984 18.228 24.0043 18.1814 24.0204 18.0947C24.0751 17.9853 24.2086 17.9698 24.2946 17.8831C24.4901 17.7431 24.8503 17.6563 24.8423 17.3507C24.8036 17.1946 24.6235 17.1473 24.584 17.0142L25.8917 16.0817L26.0566 16.0273C26.1427 15.9877 26.1899 16.1213 26.2282 16.1681C26.2836 16.2151 26.3462 16.1681 26.385 16.1294C26.433 16.0273 26.3776 15.9175 26.3149 15.8391C26.2129 15.7296 26.0727 15.7221 25.9393 15.7686L24.6781 16.6386L24.458 16.6539C24.4113 16.6457 24.3494 16.6386 24.3494 16.5834C24.5442 16.3246 24.7089 16.0663 24.9443 15.8475C25.0378 15.7844 25.1006 15.9175 25.1718 15.941C25.266 15.9176 25.2574 15.808 25.2574 15.7456C25.2267 15.6512 25.132 15.5886 25.0378 15.5729ZM13.3772 16.1309C13.3202 16.1314 13.262 16.1408 13.2033 16.1605C12.8897 16.2466 12.7409 16.5754 12.6782 16.8653C12.6155 17.2646 12.7644 17.6956 13.132 17.9071C13.2734 17.9853 13.4929 17.9539 13.6337 17.8992C13.8059 17.8291 13.9318 17.6717 14.002 17.5075C14.0801 17.406 14.0022 17.2252 14.1429 17.1625L17.0562 17.1551L17.331 17.202C17.3936 17.2413 17.5498 17.1859 17.5265 17.3201C17.5265 17.4762 17.7067 17.4134 17.7928 17.4761C17.8401 17.6482 17.6204 17.5389 17.5577 17.625C17.519 17.7504 17.5498 17.8913 17.5652 18.0167C17.7067 18.0641 17.9027 18.0555 18.0355 18.0246C18.0983 17.962 18.0434 17.8205 18.1769 17.8057C18.2156 17.8205 18.2471 17.8685 18.2317 17.9152C18.2785 18.1655 18.6074 18.0088 18.7802 18.0407L18.7876 17.6409C18.7248 17.5468 18.5444 17.6483 18.5205 17.5075C18.5444 17.4448 18.6074 17.4529 18.6621 17.4529C18.7649 17.4295 18.7876 17.3199 18.7876 17.2252C18.8428 17.1158 18.991 17.1391 19.0143 17.006C19.0146 16.928 18.9838 16.8497 18.913 16.8264L17.6046 16.8182C17.4638 16.8573 17.3464 16.6457 17.2442 16.8182C16.2108 16.8342 15.1692 16.8182 14.1429 16.8182L14.0414 16.7716C13.9941 16.6148 13.9388 16.4579 13.8379 16.3245C13.7083 16.2072 13.5482 16.1293 13.3772 16.1309ZM24.2318 16.8645C24.2445 16.8635 24.2542 16.8655 24.2542 16.8813C24.215 16.9281 24.1687 16.9671 24.1055 16.9671C24.1135 16.92 24.1448 16.8732 24.1921 16.8653C24.2035 16.8692 24.2191 16.8655 24.2318 16.8645Z" fill="#0C234B"/>
<path d="M17.2661 1.36484C17.1192 1.40327 16.8887 1.32597 16.8266 1.47264C16.8421 1.55761 16.8114 1.66574 16.8889 1.71921C17.1048 1.75793 17.3512 1.75792 17.5744 1.75792C17.6285 1.75792 17.6826 1.81979 17.6747 1.87366L17.621 4.15507L17.6747 4.20906C17.7824 4.21679 17.9292 4.27873 18.0294 4.18623L18.0993 1.90463L18.1529 1.81172L18.9232 1.8272L18.9774 1.7736C18.9774 1.68852 19.0235 1.5656 18.9386 1.49587C18.3914 1.4113 17.8214 1.442 17.2661 1.36484ZM16.4646 1.38767C16.3409 1.3957 16.1872 1.37235 16.0944 1.44187C16.079 2.29751 16.2253 3.10701 16.2487 3.97027C16.2636 4.05525 16.2181 4.1784 16.3257 4.20909C16.4258 4.19375 16.5883 4.24772 16.6417 4.12433L16.5028 1.4339L16.4646 1.38767ZM14.7369 1.49686C14.5414 1.5017 14.3449 1.55019 14.191 1.62749C13.9598 1.71176 13.7974 1.95062 13.7747 2.18217C13.7672 3.08406 14.8149 2.69052 15.2773 3.0914C15.3929 3.20738 15.5083 3.35368 15.4623 3.53074C15.4241 3.70811 15.3 3.87011 15.1389 3.95498C14.8148 4.10897 14.4687 3.9473 14.2136 3.75428L14.1445 3.76993C14.1063 3.89312 13.8438 4.01618 14.0521 4.13978C14.3295 4.34785 14.6381 4.42507 15.0082 4.38655C15.3237 4.30198 15.6319 4.1475 15.8097 3.83941C15.9479 3.57748 15.9479 3.2226 15.8097 2.96035C15.5403 2.5983 15.1161 2.44394 14.6765 2.42097C14.5228 2.39017 14.3224 2.40557 14.2529 2.2284C14.2142 2.15126 14.2294 2.04326 14.3142 1.98918C14.554 1.79637 14.915 1.91997 15.1774 1.98918C15.2776 1.91997 15.2776 1.78872 15.3084 1.68088L15.2777 1.62747C15.1273 1.53081 14.9328 1.492 14.7373 1.49684L14.7369 1.49686ZM20.1548 1.71008C20.0916 1.71005 20.0295 1.72185 19.9718 1.75078C19.4935 2.55194 18.985 3.30726 18.5226 4.11634L18.492 4.24757C18.5688 4.32502 18.685 4.30913 18.7852 4.32519C18.9464 4.28646 18.9542 4.09356 19.0699 3.98572C19.5175 4.01611 19.9491 4.13969 20.3881 4.23229L20.4497 4.58704C20.5117 4.73372 20.6815 4.72575 20.8126 4.77942C20.8665 4.80279 20.9041 4.73374 20.9041 4.67936C20.7423 3.76233 20.6887 2.80646 20.535 1.88933L20.4649 1.78158C20.3684 1.74277 20.2602 1.71013 20.1548 1.71008ZM12.7648 2.04082C12.4237 2.03211 12.0432 2.17022 11.77 2.27429C11.6009 2.35143 11.3925 2.37436 11.2769 2.51331C11.6396 3.36123 11.8782 4.26281 12.279 5.08003C12.4028 5.04212 12.5793 5.04944 12.6187 4.91049C12.3715 4.27094 12.1557 3.61595 11.8857 2.98362C11.8476 2.89112 11.778 2.76758 11.8401 2.65963C12.1322 2.52861 12.4716 2.35907 12.8029 2.44384C12.9112 2.51336 13.0656 2.60583 13.0342 2.77558C13.0189 3.03751 12.8263 3.23051 12.6024 3.32271C12.5176 3.39193 12.2717 3.31511 12.3098 3.46147C12.7641 3.89315 13.2346 4.26294 13.7276 4.61747C13.8673 4.58698 14.0437 4.57937 14.1213 4.45607C13.7745 4.19373 13.4356 3.87006 13.0882 3.58474C13.0187 3.43075 13.2886 3.36117 13.3582 3.2145C13.4965 2.99128 13.5506 2.66737 13.4203 2.41305C13.2716 2.14326 13.0301 2.04759 12.7648 2.04082ZM21.5207 2.05353C21.4934 2.0547 21.4655 2.0627 21.4366 2.08191C21.4367 2.18193 21.3136 2.2977 21.4366 2.37454L22.1153 2.63698L22.1536 2.69058C21.9069 3.44631 21.6371 4.18618 21.4127 4.94963C21.468 5.04212 21.5912 5.07257 21.6992 5.09574C21.8375 5.00345 21.8374 4.81072 21.915 4.66415C22.1456 4.0554 22.3158 3.41515 22.6233 2.83709C22.8084 2.86779 22.9708 2.96037 23.1399 3.04534C23.226 3.08397 23.3717 3.13012 23.4258 3.00683C23.4565 2.93741 23.5333 2.85249 23.4645 2.77575C22.9086 2.52123 22.3459 2.30541 21.7599 2.12042C21.6792 2.10914 21.6028 2.05 21.5207 2.05353ZM20.111 2.33603H20.1343C20.2185 2.81416 20.3108 3.30001 20.3034 3.7934C19.9718 3.77775 19.6632 3.68544 19.3553 3.61592L19.3787 3.51566L20.111 2.33603ZM10.6377 2.74458C10.0978 2.96037 9.58862 3.25333 9.07216 3.523L9.04139 3.61591L10.3757 5.93583L10.4525 5.98963C10.9837 5.71225 11.5243 5.45032 12.063 5.18045L12.079 5.06471C12.025 4.98746 12.0249 4.81782 11.8785 4.84851C11.4856 5.05699 11.0687 5.24996 10.6832 5.43495L10.6451 5.42721C10.4674 5.17269 10.2904 4.9104 10.1754 4.63332C10.3445 4.44792 10.5983 4.36318 10.7987 4.21681C10.8375 4.17839 10.8073 4.12419 10.7987 4.07804C10.7686 4.01594 10.7374 3.89309 10.6298 3.92379C10.3979 4.01598 10.1901 4.2244 9.94408 4.24758L9.68143 3.83167C9.65074 3.77759 9.60404 3.70062 9.66615 3.64644L10.7686 3.05326L10.7841 2.96849C10.7373 2.89866 10.7373 2.77559 10.6377 2.74458ZM23.8728 3.01457L22.6781 5.43492L22.6701 5.52763C22.7858 5.56595 22.8779 5.73524 23.0094 5.63543L23.2172 5.20344C23.5333 4.54052 23.9104 3.88572 24.2111 3.20725C24.1502 3.09127 23.9959 3.02209 23.8728 3.01457ZM25.0105 3.73223C24.9836 3.73334 24.9565 3.73564 24.9291 3.73898C24.7968 3.8084 24.6358 3.86263 24.5584 4.01632C24.2731 4.71055 25.2058 5.11133 24.998 5.80525C24.8744 6.02115 24.6426 6.17518 24.3887 6.12131C24.1582 6.04396 24.0039 5.85128 23.9263 5.61984C23.8342 5.49664 23.9417 5.19584 23.7258 5.21922C23.6335 5.30378 23.4412 5.29643 23.4491 5.45785C23.5413 5.82803 23.7339 6.15966 24.0574 6.39131C24.3352 6.59907 24.7585 6.56032 25.0599 6.42168C25.3367 6.20548 25.5299 5.9052 25.4991 5.5585C25.4603 5.05739 25.0359 4.71045 24.9746 4.2171C25.0054 4.17085 25.0514 4.14768 25.1056 4.13233C25.2752 4.10915 25.4215 4.20203 25.5679 4.29433C25.7142 4.42535 25.7454 4.63368 25.8685 4.78747C25.9613 4.84185 26.069 4.77968 26.1464 4.71818C26.2386 4.54071 26.0689 4.4021 26.0075 4.25543C25.7544 3.94478 25.4137 3.7156 25.0105 3.73223ZM8.722 3.78397C8.61375 3.77065 8.44014 3.93918 8.38688 4.02415L8.8419 6.02095L8.82661 6.10572C8.21045 5.78971 7.59377 5.50408 6.99244 5.15737L6.86141 5.14923C6.78396 5.21916 6.60696 5.31903 6.63034 5.4349C7.50895 5.91304 8.38695 6.38302 9.28955 6.79958C9.32767 6.807 9.38173 6.79183 9.36638 6.74538C9.22743 5.78982 8.99619 4.87269 8.81171 3.93959C8.80691 3.83354 8.77122 3.78998 8.722 3.78397ZM6.3608 5.65646C6.21749 5.66119 6.07598 5.85329 6.08247 5.9747L7.9327 7.77847L8.04824 7.8555C8.15639 7.81677 8.27204 7.69353 8.29481 7.57796C7.67071 6.95356 7.07681 6.30598 6.42191 5.66654C6.40179 5.65882 6.38128 5.65578 6.3608 5.65646ZM5.58735 6.44599C5.47895 6.45269 5.39567 6.6116 5.35826 6.69931C5.75914 7.16179 6.28295 7.48547 6.70779 7.91701C6.69925 7.94008 6.66847 7.93223 6.66054 7.94758C5.94415 7.87846 5.22725 7.74757 4.52642 7.70082C4.46431 7.79402 4.34011 7.87074 4.3948 7.99404C4.98871 8.43345 5.59725 8.88824 6.21403 9.29671C6.36771 9.35089 6.48332 9.55115 6.65297 9.52045C6.69911 9.43558 6.83741 9.33545 6.76057 9.22008C6.2988 8.88801 5.82804 8.56443 5.38166 8.20999L5.41243 8.18676C6.10605 8.24866 6.78422 8.3486 7.463 8.45675L7.57795 8.38727C7.61668 8.33309 7.71693 8.27163 7.64009 8.18676C6.96914 7.65536 6.33701 7.02262 5.66616 6.46836C5.63874 6.45096 5.61237 6.44444 5.58735 6.44599ZM29.4778 7.7941C28.7154 7.96344 27.9745 8.17931 27.2349 8.37934C27.019 8.395 26.8347 8.48719 26.6495 8.55702C26.6341 8.69597 26.757 8.78033 26.8726 8.85758C27.0418 8.84213 27.2041 8.78825 27.3584 8.76487L28.0366 9.72076C28.2223 9.9212 27.913 10.0829 27.867 10.2683C27.8757 10.3917 27.9593 10.4841 28.0453 10.5687C28.0835 10.5763 28.1141 10.5686 28.1368 10.5454L29.7017 8.13321L29.7172 8.00993C29.6711 7.91702 29.6093 7.77844 29.4778 7.7941ZM4.21922 8.17923C4.13871 8.1918 4.10387 8.28733 4.06358 8.34123C3.95594 8.51829 4.18651 8.61851 4.25655 8.76488C4.56463 9.24291 4.93424 9.68983 5.2041 10.1756L5.18127 10.2141C4.47169 10.1756 3.8169 10.137 3.13802 10.0982L3.04571 10.1446C3.02243 10.2681 2.83068 10.3606 2.93771 10.4915C3.93199 10.5456 4.88806 10.6381 5.89037 10.6616C5.93652 10.6689 5.98326 10.615 5.9672 10.5609C5.45075 9.7365 4.82655 8.97295 4.25653 8.17921C4.24301 8.17725 4.23072 8.17743 4.21922 8.17923ZM29.054 8.3178L29.0466 8.39502C28.7994 8.74956 28.5837 9.13487 28.3297 9.45893C28.1447 9.21234 27.9282 8.94975 27.7898 8.66504L27.8513 8.61045C28.2522 8.51826 28.6456 8.39484 29.054 8.3178ZM18.2258 8.49091L16.9977 9.87307C16.9977 9.87307 16.0399 8.74959 15.8357 8.5092C15.7164 8.80651 15.1236 10.2872 15.1236 10.2872C15.1236 10.2872 13.6985 9.37994 13.4378 9.2135C13.3972 9.51914 13.1838 11.1471 13.1838 11.1471C13.1838 11.1471 11.606 10.7212 11.304 10.6396C11.363 10.9449 11.6626 12.5048 11.6626 12.5048C11.6626 12.5048 9.99317 12.6407 9.68031 12.6662C9.83888 12.9336 10.6485 14.2963 10.6485 14.2963C10.6485 14.2963 9.89243 14.5743 9.36729 14.767C11.1542 14.7669 13.8658 14.7668 16.6186 14.7668V13.4917H15.9656V12.6585H16.6186V11.9342H17.4313V12.6585H18.1109V13.4917H17.4313V14.7668H24.7632C24.3151 14.5581 23.6289 14.2395 23.6289 14.2395C23.6289 14.2395 24.2917 12.8298 24.4293 12.537C24.1109 12.5551 22.6623 12.6382 22.6623 12.6382C22.6623 12.6382 22.8387 10.8761 22.8681 10.5837C22.5885 10.6614 21.021 11.0963 21.021 11.0963C21.021 11.0963 20.8478 9.57893 20.8164 9.29981C20.5611 9.42697 19.0878 10.1638 19.0878 10.1638C19.0878 10.1638 18.3579 8.74715 18.2258 8.49091ZM30.5959 9.58978C29.8169 10.0291 29.031 10.4762 28.2601 10.9387L28.3756 11.2472H28.437L30.3873 10.1835L30.5412 10.1371C30.7036 10.5302 31.0964 10.9696 30.8118 11.3935C30.6728 11.486 30.5339 11.5397 30.3562 11.4858C30.2031 11.3859 30.0253 11.2317 29.9945 11.0463C29.9477 10.9463 29.9479 10.8153 29.8865 10.7302L29.7936 10.7921C29.4775 11.2778 29.2077 11.7789 28.8843 12.2566C28.8461 12.403 28.9378 12.5415 29.0078 12.6652C29.0539 12.6963 29.0846 12.6652 29.116 12.6344L29.7634 11.5782L29.8325 11.5397L30.0709 11.7482C30.3181 11.9332 30.6494 11.9559 30.9349 11.8329C31.1039 11.7248 31.2589 11.5319 31.2817 11.3237C31.3892 10.646 30.9655 10.1368 30.6728 9.5972L30.596 9.58966L30.5959 9.58978ZM31.7205 12.1877C31.2347 12.3497 30.7574 12.5418 30.2643 12.6731C29.8935 12.8195 29.5007 12.912 29.154 13.1047C29.1465 13.2203 29.1845 13.336 29.2695 13.4055C30.0405 13.2129 30.7728 12.912 31.5434 12.6965C31.6435 12.6193 31.8439 12.6578 31.8827 12.5036C31.8512 12.3879 31.8828 12.1951 31.7205 12.1877ZM1.98244 13.1746C1.85884 13.2364 1.86682 13.4057 1.87424 13.5136L2.9848 14.6311L3.01557 14.7236C2.53785 15.0013 2.04462 15.2169 1.57365 15.5022C1.47343 15.6025 1.45801 15.7796 1.50476 15.8878L4.21795 16.0414L4.30232 15.9956C4.33373 15.9108 4.35644 15.7717 4.27949 15.703C3.67014 15.633 3.04604 15.5793 2.44471 15.5793L2.37583 15.5328C2.79948 15.2553 3.26938 15.078 3.70157 14.8164V14.7778C3.33138 14.3843 2.94598 14.076 2.59914 13.6908C2.79958 13.6446 2.99192 13.7681 3.20782 13.76C3.7015 13.7911 4.14845 13.9762 4.63419 13.9606C4.63419 13.8603 4.74988 13.7525 4.64173 13.6679C3.76363 13.5059 2.8843 13.2981 1.98231 13.1746L1.98244 13.1746ZM32.0275 13.3483C31.9464 13.349 31.8613 13.3825 31.7976 13.4289L32.0136 14.4922C32.0055 14.5617 32.0751 14.6694 31.983 14.7002C31.1037 14.423 30.3025 13.9526 29.4159 13.706L29.3309 13.7293C29.4545 14.2765 29.5626 14.8391 29.6241 15.4175L29.6938 15.4945C29.8013 15.5021 29.9403 15.4946 30.0251 15.4097L29.8935 14.6853C29.8861 14.5695 29.8245 14.4152 29.8935 14.3075C30.726 14.6466 31.5667 14.9703 32.3832 15.3477C32.4532 15.3477 32.4607 15.2865 32.4914 15.2403L32.2138 13.6597L32.1062 13.3593C32.081 13.3515 32.0545 13.3481 32.0275 13.3483ZM31.1351 15.3553C30.7495 15.371 30.3948 15.4791 30.1254 15.7486C29.647 16.1729 29.5007 16.8815 29.7399 17.4909C29.9791 17.9921 30.4642 18.377 31.0275 18.4083C31.6822 18.447 32.2754 18.0608 32.5761 17.4909C32.7538 17.0516 32.7073 16.5198 32.4767 16.1185C32.1988 15.6484 31.6897 15.3477 31.1351 15.3553ZM31.1996 15.7574C31.3188 15.7627 31.4364 15.7873 31.5433 15.8338C31.767 15.9261 31.9829 16.1112 32.0983 16.3343C32.3297 16.7045 32.2683 17.2751 32.0056 17.614C31.713 17.9073 31.2813 18.0923 30.8496 17.9532C30.4179 17.8604 30.1174 17.445 30.0565 17.0283C30.0251 16.5506 30.2102 16.0955 30.6338 15.8796C30.7979 15.7929 31.0009 15.7484 31.1996 15.7574ZM1.52763 16.1344L1.47284 16.1649C1.45007 16.3036 1.41923 16.4503 1.49547 16.5656C2.1589 16.8278 2.83046 17.0745 3.48525 17.3527L3.4926 17.3908C3.02229 17.6761 2.54379 17.938 2.05921 18.1927C1.88886 18.393 1.35757 18.3389 1.54206 18.7553C1.53464 18.8247 1.58868 18.8701 1.6576 18.848C2.51405 18.385 3.36949 17.9454 4.21741 17.4369C4.2791 17.4053 4.36339 17.3218 4.2718 17.2677L1.52873 16.1323L1.52763 16.1344ZM13.3407 16.5632C13.2227 16.5865 13.176 16.7195 13.1287 16.8054C13.074 17.0408 13.1287 17.2757 13.2542 17.4559C13.3329 17.5186 13.4349 17.5419 13.513 17.4792C13.5518 17.4005 13.5912 17.3231 13.5758 17.2211C13.4977 17.0797 13.4657 16.8918 13.5518 16.743C13.5444 16.6332 13.4348 16.5785 13.3407 16.5632ZM24.2288 16.8675C24.2162 16.8684 24.2006 16.8723 24.1891 16.8683C24.1419 16.8763 24.1106 16.9231 24.1026 16.9702C24.1657 16.9702 24.2119 16.9312 24.2513 16.8844C24.2513 16.8686 24.2415 16.8666 24.2288 16.8675ZM4.1968 18.0364C4.11175 18.0372 4.01487 18.0908 3.95719 18.1291C3.96451 18.5995 4.12638 19.0393 4.14162 19.517L4.08762 19.5865C3.34796 19.7248 2.66176 20.01 1.93683 20.1799L1.8058 20.2573C1.79777 20.3728 1.82923 20.5038 1.914 20.5733C2.7853 20.3569 3.64053 20.1183 4.5038 19.887L4.58876 19.8404C4.51985 19.255 4.35773 18.6997 4.32632 18.1064C4.29472 18.0543 4.24791 18.0358 4.19689 18.0363L4.1968 18.0364ZM29.7491 18.5528L29.6401 18.6076C29.6169 18.6998 29.5327 18.8159 29.6169 18.9081L31.2206 19.1394L31.2752 19.1849C30.6505 19.448 29.9876 19.6252 29.3783 19.9105C29.3021 20.0028 29.3022 20.1337 29.3022 20.2492C29.4251 20.3334 29.5796 20.3494 29.7179 20.357C30.4429 20.5966 31.2205 20.6961 31.9608 20.912L32.0462 20.866C32.0916 20.7658 32.1304 20.6188 32.0996 20.5112C31.4603 20.4037 30.8431 20.2266 30.2115 20.0949L30.1569 20.0409C30.8663 19.7095 31.6448 19.5477 32.3778 19.255C32.3845 19.1469 32.4928 18.9771 32.3464 18.9081C31.4604 18.8381 30.6351 18.6383 29.7491 18.5528ZM20.4862 19.6867C20.4862 19.6867 20.2666 19.9295 20.1573 20.0322L19.8277 19.6947C19.7736 19.8435 19.8278 20.0003 19.7423 20.1338L19.3818 19.8908C19.3818 19.8908 19.4519 20.2118 19.436 20.376C19.2791 20.376 19.1311 20.282 18.9822 20.2745C19.005 20.4394 19.1932 20.5254 19.2252 20.6815C19.123 20.7836 18.9191 20.7048 18.8335 20.8229C18.9429 20.901 19.0684 20.9249 19.1932 20.9791C19.1778 21.1279 18.9428 21.0972 18.9115 21.238C19.021 21.3161 19.1858 21.2766 19.2953 21.3394C19.2405 21.4021 19.139 21.4333 19.0995 21.4881C19.1776 21.5349 19.5926 21.4415 19.6866 21.4881C19.8115 21.4333 19.8277 21.3002 19.9222 21.2227C19.9456 21.1439 19.8743 21.0732 19.8194 21.0111C19.5421 20.7129 19.9534 20.7171 19.9296 20.4072C20.0857 20.4465 19.9996 20.2431 20.1178 20.2511C20.1492 20.5014 20.243 20.8303 20.0477 21.0345C19.9763 21.238 20.1799 21.3393 20.274 21.4881L20.5249 21.5197C20.5483 21.5276 20.5483 21.5662 20.5249 21.5743C19.7029 21.6136 18.919 21.6215 18.0968 21.5981C18.0186 21.5661 18.0734 21.4494 17.9792 21.4415L15.9821 21.4494C15.8801 21.4415 15.9588 21.5742 15.8801 21.5902C15.1361 21.6369 14.431 21.5902 13.6949 21.5902C13.5302 21.6602 13.7182 21.7784 13.7497 21.8645C14.0246 21.9506 14.3061 22.0526 14.5176 22.2481C14.5096 22.2714 14.4856 22.2641 14.4702 22.2794C13.9765 22.2401 13.5069 22.2169 13.0532 22.0835C12.6848 21.8879 12.1749 21.6063 12.2382 21.1046C12.3009 20.8383 12.5206 20.6115 12.8022 20.5795C13.0051 20.5174 13.2019 20.5953 13.3426 20.7514C13.4601 20.8929 13.5302 21.0498 13.5147 21.2451C13.4914 21.3786 13.3892 21.2612 13.3271 21.2612C13.2558 21.2852 13.2639 21.3627 13.2793 21.4101C13.3113 21.4962 13.3973 21.5742 13.4913 21.5661C13.6395 21.41 13.8438 21.5982 13.9846 21.4728C13.9692 21.4414 13.9304 21.4414 13.9064 21.4333C13.781 21.3554 13.7421 21.2066 13.7496 21.0577C13.6948 20.7515 13.4446 20.4233 13.1304 20.3605C12.818 20.3138 12.4725 20.3686 12.2382 20.5954C12.0028 20.8303 11.9326 21.1591 12.0107 21.4881C12.2695 21.9271 12.7074 22.3183 13.2244 22.3809C13.7268 22.5225 14.3762 22.3269 14.8311 22.6005C14.8932 22.6711 14.9487 22.7574 14.9167 22.8593C14.9247 22.9142 14.9793 22.9374 15.034 22.9294C15.1515 22.8827 15.1434 22.7338 15.1281 22.6477C15.1755 22.6477 15.2143 22.671 15.253 22.7019C15.7081 22.9613 16.2172 23.0861 16.757 23.1335L16.7262 23.1643C16.5307 23.1801 16.374 23.2896 16.2172 23.415C16.1931 23.4544 16.1624 23.5167 16.2018 23.5566C16.6563 23.6107 17.1405 23.6106 17.6117 23.5953C17.6817 23.5873 17.7992 23.5407 17.7524 23.4466C17.5956 23.2431 17.3375 23.2505 17.1493 23.141L17.1725 23.125C18.0185 23.1176 18.7305 22.7179 19.3658 22.1774C19.7808 21.8718 20.36 21.9738 20.7678 21.6602L21.1748 21.6456C21.1354 21.5274 20.9712 21.4493 20.9012 21.3392C21.0414 21.2764 21.2223 21.3087 21.3711 21.2533C21.3783 21.1512 21.0501 20.971 21.0501 20.971C21.1749 20.8929 21.387 20.9169 21.4338 20.7675C21.2769 20.7281 21.1047 20.7281 20.9554 20.6581C21.0106 20.5173 21.1514 20.4306 21.2141 20.2819C21.0654 20.2352 20.9405 20.3839 20.7992 20.3291C20.7597 20.1804 20.9485 20.0549 20.9085 19.8908C20.7678 19.9222 20.6664 20.0469 20.5329 20.1096L20.5095 20.079C20.5095 19.9536 20.5328 19.7961 20.4862 19.6867ZM16.9912 19.8144C16.9045 19.8032 16.8709 19.93 16.8435 19.9843C16.8121 20.0323 16.75 20.0322 16.75 20.0943C16.75 20.1257 16.7809 20.1258 16.8048 20.1417C16.8589 20.1885 16.8202 20.2352 16.7968 20.2819C16.4439 20.4781 16.3429 20.8771 16.2014 21.2066L16.233 21.238C16.6788 21.2693 17.1098 21.2534 17.5562 21.2453C17.603 21.238 17.6815 21.2381 17.6662 21.1673C17.5328 20.8697 17.4622 20.5487 17.1885 20.3139C17.0546 20.1417 17.3372 20.2047 17.3372 20.0705C17.3293 19.9929 17.2352 20.0077 17.1804 19.9929C17.1023 19.969 17.0546 19.8981 17.0317 19.8281C17.017 19.8202 17.0035 19.816 16.9912 19.8144ZM4.54382 20.0772C4.44899 20.08 4.35198 20.1221 4.31234 20.2033L4.65102 21.2048C4.65895 21.3438 4.80466 21.4601 4.71237 21.5904C3.99547 21.9138 3.27065 22.2305 2.54572 22.5312L2.52289 22.5925C2.58499 22.6927 2.58498 22.8705 2.73928 22.8619C3.5257 22.5385 4.28864 22.1535 5.0898 21.8522L5.1978 21.7754C5.01331 21.2128 4.83622 20.6496 4.63578 20.0876C4.60688 20.0798 4.57543 20.0763 4.54382 20.0772ZM29.2342 20.7264C29.1964 20.7225 29.161 20.7351 29.1324 20.7812C28.9781 21.144 28.9006 21.5288 28.7163 21.8757C28.6621 21.9986 28.5693 22.145 28.6468 22.2694C28.7315 22.3148 28.8698 22.4083 28.9547 22.3075L29.2942 21.3359L29.371 21.2515C29.7105 21.3129 30.0419 21.4133 30.3499 21.5596L30.1722 22.1917L30.2195 22.2459C30.3118 22.2533 30.4193 22.3848 30.5042 22.2692C30.589 22.076 30.6353 21.8682 30.7509 21.6831C30.944 21.7058 31.1437 21.76 31.3294 21.8449L31.3521 21.8989C31.2444 22.3145 31.0288 22.6854 30.9046 23.0857C30.936 23.1478 31.0055 23.1787 31.059 23.21C31.1204 23.2321 31.2206 23.2405 31.2673 23.1784C31.4684 22.6852 31.6836 22.1995 31.8299 21.6911L31.8142 21.5676C31.0135 21.3132 30.2263 21.0506 29.4252 20.8046C29.3672 20.7854 29.2972 20.7329 29.2342 20.7264ZM28.5436 22.4008C28.5234 22.4027 28.5036 22.4113 28.4844 22.4304C28.4536 22.5471 28.2999 22.6776 28.4 22.7931C28.8625 23.0551 29.3558 23.2863 29.8028 23.5641L29.7873 23.5949H28.2612C28.0994 23.6097 27.8985 23.5173 27.7987 23.6717C27.768 23.7486 27.6599 23.8333 27.7449 23.9256L28.7236 24.5355C29.1782 24.7889 29.5868 25.1596 30.0579 25.3675C30.1722 25.3213 30.2344 25.1751 30.2423 25.0596L28.7937 24.1115C28.7698 24.104 28.7543 24.0493 28.7851 24.0265C29.4712 23.965 30.1414 24.034 30.8128 24.0112C30.9438 23.9491 30.9975 23.7954 30.9975 23.6719C30.4809 23.4253 29.9716 23.148 29.471 22.8707L28.7315 22.4536C28.6679 22.448 28.604 22.3949 28.5436 22.4008ZM5.45202 22.4302C4.63541 22.8618 3.79491 23.2321 2.98572 23.6717C2.97769 23.7953 3.05513 23.9343 3.14732 24.011C3.95712 23.5948 4.78908 23.1786 5.61422 22.7696L5.63705 22.6855C5.56753 22.6001 5.59097 22.4536 5.45202 22.4302ZM5.45917 23.6493C5.2429 23.6541 5.02836 23.701 4.8358 23.7879C4.72765 23.8567 4.53521 23.895 4.52789 24.0572L5.00495 24.7815C5.10507 24.8823 5.1974 24.7201 5.28288 24.6659C5.26743 24.5122 5.15187 24.3966 5.05835 24.273C5.00499 24.227 5.04296 24.1499 5.08972 24.1186C5.53665 23.9876 6.03055 24.0878 6.33862 24.4654C6.56976 24.7433 6.67005 25.1441 6.53913 25.4983C6.43952 25.8452 6.12331 26.1772 5.7766 26.2694C5.32896 26.4158 4.88127 26.2388 4.58858 25.8914C4.30327 25.5907 4.33464 25.1054 4.40356 24.7199C4.3193 24.6504 4.1876 24.6278 4.07203 24.6425C3.84882 25.1442 3.93324 25.7911 4.31939 26.1926C4.72769 26.6088 5.26741 26.8087 5.85279 26.647C6.2919 26.5468 6.73214 26.146 6.89383 25.7223C7.10962 25.2525 6.99411 24.6427 6.70087 24.2505C6.41974 23.8315 5.93489 23.6386 5.45908 23.6493L5.45917 23.6493ZM18.1027 23.7551C17.3481 23.756 16.5922 23.775 15.8332 23.7597C15.5042 23.7597 15.1439 23.7756 14.8316 23.7843C14.6509 23.8223 14.4553 23.7054 14.3065 23.799C14.2593 23.9084 14.3765 23.9404 14.4312 23.9951C14.4079 24.1986 14.5496 24.4803 14.3534 24.5984C14.322 24.6378 14.3219 24.7079 14.3687 24.7392C14.4467 24.7706 14.5568 24.7706 14.6349 24.7312L19.4364 24.6844C19.5543 24.6376 19.625 24.5277 19.6645 24.4102C19.7345 24.1674 19.6251 23.9404 19.4598 23.7843C19.0076 23.7605 18.5555 23.7545 18.1027 23.7551ZM28.0074 24.3733C27.815 24.3813 27.5909 24.3579 27.4293 24.4733C27.0358 24.6659 26.7199 25.0742 26.6819 25.4983C26.6743 25.8913 26.959 26.1539 27.259 26.3617C27.6452 26.5155 28.0535 26.3391 28.3929 26.1693C28.6081 26.0846 28.8779 25.8379 29.1018 26.0456C29.156 26.2462 29.033 26.4233 28.9013 26.5622C28.7785 26.7626 28.2458 26.7554 28.5005 27.0946C28.6855 27.1402 28.8171 27.0099 28.971 26.9557C29.3103 26.7085 29.6263 26.339 29.4874 25.8914C29.4102 25.715 29.2485 25.5679 29.0635 25.5291C28.7702 25.4829 28.5549 25.6374 28.3312 25.7683C28.0464 25.8452 27.784 26.0844 27.468 25.9535C27.3365 25.9068 27.198 25.784 27.1519 25.6609C27.0282 25.3522 27.2208 25.1136 27.4293 24.9051C27.5989 24.7669 27.8463 24.7816 28.0465 24.704C28.1075 24.6279 28.0466 24.5356 28.0687 24.4427L28.0074 24.3733ZM15.8508 24.8249C15.7823 24.829 15.7193 24.8499 15.6697 24.9115V25.7814L15.7237 25.8442C16.6404 25.8202 17.6121 25.8829 18.5676 25.8201C18.5755 25.7887 18.5597 25.7656 18.5517 25.7342C18.6064 25.4679 18.6063 25.1228 18.5196 24.8726C17.7842 24.8332 16.938 24.8726 16.202 24.8333C16.094 24.8579 15.9648 24.8181 15.8508 24.8249ZM15.177 24.8378C15.0977 24.8369 15.0195 24.8488 14.9491 24.8879L14.9717 25.7651L15.0191 25.8281C15.168 25.8746 15.3408 25.8674 15.4809 25.8047C15.4964 25.5304 15.4808 25.2328 15.4575 24.9585L15.4106 24.8646C15.3363 24.8527 15.2562 24.8388 15.177 24.8378ZM19.3896 24.8406C19.3263 24.8566 19.2876 24.888 19.2723 24.9508L19.3029 25.7495L19.3582 25.8201C19.7345 25.8748 20.1102 25.8441 20.5099 25.8515L20.6034 25.8048C20.6427 25.5933 20.4232 25.6867 20.329 25.6246C20.2357 25.4518 20.2509 25.1857 20.3451 25.0129C20.4003 24.9902 20.4785 25.0448 20.5252 24.9822C20.5566 24.9508 20.5486 24.8881 20.5099 24.8567L19.3896 24.8406ZM18.967 24.843C18.8788 24.8399 18.7875 24.8596 18.7238 24.9033C18.6696 25.2011 18.731 25.4986 18.7391 25.7969L18.7792 25.8283C18.904 25.8201 19.0686 25.9064 19.1627 25.7969L19.1548 24.974L19.1158 24.8726C19.0716 24.8548 19.0199 24.8448 18.967 24.843ZM14.4746 24.8545C14.2286 24.8552 14.0022 24.8802 13.75 24.8567C13.6952 24.8647 13.6093 24.8961 13.6485 24.974C13.6953 25.0601 13.7887 25.0522 13.8828 25.0522C13.9848 25.1857 13.9929 25.3585 13.9848 25.538C13.9375 25.7262 13.6719 25.5932 13.6172 25.7653C13.6325 25.8282 13.6952 25.844 13.75 25.8588C14.0949 25.8355 14.4466 25.8748 14.7841 25.8201C14.8389 25.5459 14.7528 25.2327 14.7841 24.9192L14.7289 24.8646C14.6408 24.8568 14.5566 24.8543 14.4746 24.8545ZM7.70397 25.7298C7.07123 26.3392 6.41634 26.9939 5.78421 27.6259L5.75285 27.7267C5.83762 27.8029 5.91452 27.9575 6.03812 27.9501L7.92647 26.0538L7.96578 25.9535C7.87226 25.876 7.83367 25.7531 7.70397 25.7298ZM26.188 25.8686C26.0576 25.8612 25.9421 26.015 25.8805 26.1072C26.4966 26.7786 27.1589 27.3333 27.8224 28.0035L27.93 28.0348C28.0074 27.98 28.1229 27.8879 28.161 27.7883C27.5368 27.1482 26.8275 26.5155 26.188 25.8686ZM8.33416 26.5441C8.14221 26.5424 7.94253 26.599 7.78803 26.6859C7.55689 26.7935 7.3878 27.0478 7.34969 27.2951C7.23341 27.9039 7.85812 28.2273 7.8194 28.7819C7.78799 28.8828 7.69647 28.9675 7.58832 28.9596C7.26489 28.8439 7.04828 28.4894 6.94867 28.1893C6.83991 28.166 6.70157 28.2199 6.63957 28.3195C6.69486 28.7437 7.04037 29.1139 7.42652 29.2677C7.68114 29.3291 7.95828 29.2836 8.13545 29.0906C8.47494 28.5974 8.01995 28.1117 7.82754 27.6801C7.74266 27.4869 7.78149 27.2558 7.91251 27.0946C8.0355 26.9778 8.20508 26.925 8.38956 26.9324C8.8371 27.0172 9.06835 27.5029 9.16857 27.8877L9.25275 27.9727C9.36161 27.9112 9.56951 27.98 9.57693 27.803L9.43796 27.3793C9.27615 27.0553 8.99141 26.7552 8.65995 26.6162C8.56172 26.5671 8.44934 26.5452 8.33416 26.5441ZM25.5852 26.6539C25.3892 26.6544 25.1911 26.6991 25.0327 26.7859C24.7469 26.9709 24.4543 27.2409 24.4314 27.5878C24.3386 27.9727 24.5457 28.2888 24.8084 28.528C25.3868 28.9597 25.9884 28.4202 26.5892 28.4202C26.6434 28.4583 26.7122 28.5051 26.698 28.5899C26.6045 28.8124 26.4581 29.0136 26.2195 29.0904C26.0952 29.1211 25.957 29.0982 25.8495 29.1444C25.8415 29.2754 25.826 29.4605 25.9569 29.5299C26.3351 29.5146 26.7047 29.3289 26.944 29.0215C27.0676 28.8285 27.2214 28.5738 27.0984 28.3193C26.9979 28.1116 26.7742 27.9888 26.5509 27.9801C26.1345 28.0502 25.7792 28.258 25.3403 28.258C25.1712 28.2113 24.9782 28.1731 24.9014 28.0035C24.8473 27.8264 24.8086 27.6185 24.9014 27.4415C25.1092 27.0787 25.5562 27.0406 25.9424 27.0478C25.9883 26.963 25.9882 26.8476 25.9724 26.7472L25.9269 26.701C25.8197 26.6691 25.7028 26.6536 25.5852 26.6539ZM21.7833 29.0057C21.3548 29.1777 20.9094 29.3026 20.4963 29.5061L20.4737 29.6155L20.8554 30.8398L20.9329 30.8627C21.2138 30.6918 21.4869 30.4962 21.8381 30.4962C22.033 30.4889 22.1971 30.6058 22.2979 30.7465C22.3685 30.8714 22.3999 31.0503 22.3451 31.199C22.2365 31.5341 21.8774 31.7135 21.5576 31.7757C21.4248 31.8384 21.2613 31.7443 21.1357 31.8463C21.1906 31.9631 21.3078 32.0961 21.4401 32.1354C21.7759 32.0961 22.0723 31.9708 22.3531 31.8072C22.6495 31.597 22.8284 31.2845 22.8524 30.9254C22.813 30.6598 22.7278 30.4029 22.4934 30.2393C22.1037 29.9663 21.5415 30.1063 21.1677 30.3092C21.0736 30.1224 21.0028 29.9348 20.9876 29.7164C21.1676 29.5603 21.4162 29.5369 21.635 29.4434C21.7445 29.3573 22.0561 29.5137 22.01 29.2874C21.9552 29.1859 21.9475 28.9909 21.7833 29.0057ZM12.8511 29.1077C12.5466 29.1705 12.2575 29.3267 11.9304 29.3422C11.9531 29.4589 12.0941 29.435 12.1642 29.5298C12.1255 29.8028 11.9533 30.0363 11.8599 30.2859C11.6188 30.6757 11.5715 31.1824 11.1663 31.4481C11.2985 31.6357 11.5561 31.6669 11.7591 31.7604C11.8992 31.737 11.7898 31.5262 11.852 31.4327C12.1797 30.6598 12.5466 29.9117 12.8738 29.1473L12.8511 29.1077ZM14.8086 29.6072C14.4729 29.5998 14.1384 29.7165 13.9742 30.0289C13.9195 30.185 13.9116 30.3866 13.9897 30.5428C14.029 30.6683 14.2006 30.7538 14.1926 30.8867C13.9743 30.9722 13.7166 31.0656 13.5924 31.2998C13.4744 31.55 13.5064 31.8696 13.6933 32.08C14.0604 32.4778 14.591 32.5868 15.1284 32.5247C15.394 32.4626 15.7444 32.2903 15.7837 31.9706C15.8851 31.6435 15.7138 31.3545 15.4641 31.1596C15.4248 31.1282 15.3701 31.0656 15.4175 31.0189C15.581 30.9413 15.7605 30.8627 15.8699 30.7066C15.9634 30.567 15.9707 30.3486 15.916 30.1851C15.7139 29.7633 15.2538 29.6231 14.8086 29.6072ZM18.3024 29.7807C18.0099 29.7847 17.7076 29.8764 17.4773 29.9969C17.2898 30.2158 17.0556 30.4421 17.1809 30.7465C17.2431 30.9722 17.4305 31.1049 17.626 31.2057L17.6409 31.2692C17.376 31.4714 17.1496 31.737 17.2193 32.0881C17.2592 32.3998 17.6102 32.6262 17.8905 32.6889C18.4365 32.7589 19.0059 32.6888 19.357 32.267C19.4979 32.0801 19.5366 31.8073 19.4664 31.5809C19.3649 31.2999 19.084 31.1824 18.8422 31.0658C18.9043 30.8554 19.1781 30.7385 19.1855 30.5047C19.17 30.3559 19.154 30.2078 19.0686 30.0904C18.8776 29.8604 18.5949 29.7767 18.3024 29.7807ZM14.8896 29.8953C15.1297 29.9103 15.3664 30.0228 15.4715 30.2625C15.511 30.364 15.5029 30.4962 15.4407 30.5897C15.3546 30.7151 15.2225 30.7772 15.0903 30.824C14.8086 30.7066 14.4502 30.5357 14.4348 30.1772C14.4576 30.0671 14.5509 29.9503 14.653 29.9115C14.7291 29.896 14.8096 29.8902 14.8896 29.8953ZM18.1822 30.0852C18.3508 30.0852 18.5186 30.1418 18.6394 30.2546C18.7255 30.356 18.7487 30.5275 18.6942 30.6522C18.6473 30.7617 18.5227 30.8713 18.4446 30.9254C18.1403 30.8867 17.7812 30.8554 17.6483 30.5516C17.6102 30.4421 17.6648 30.34 17.7196 30.2546C17.8441 30.1418 18.0135 30.0852 18.1822 30.0852ZM14.5084 31.1243C14.5588 31.1207 14.6102 31.1284 14.6611 31.1517C14.8948 31.2846 15.1839 31.4247 15.3006 31.6903C15.324 31.8144 15.2932 31.9399 15.2305 32.0407C15.0428 32.2517 14.7233 32.2597 14.4731 32.1823C14.2947 32.1355 14.1458 31.994 14.0604 31.8226C13.9975 31.6817 14.0125 31.4796 14.1146 31.3546C14.2142 31.2495 14.3572 31.1354 14.5084 31.1243ZM18.1434 31.3644C18.2904 31.3691 18.4484 31.4415 18.5852 31.4561C18.7407 31.5341 18.9677 31.5971 19.0058 31.8073C19.0372 31.9868 18.9597 32.1115 18.8581 32.2289C18.6086 32.3999 18.2649 32.4626 17.9838 32.3224C17.851 32.2518 17.7348 32.1195 17.7035 31.9707C17.6481 31.7524 17.7809 31.5969 17.8977 31.4561C17.971 31.383 18.0553 31.3615 18.1434 31.3644Z" fill="white"/>
<path d="M16.3075 10.1758C16.0458 10.1715 15.7563 10.2652 15.5384 10.3334C15.5943 10.818 15.7562 11.2536 15.8852 11.7052C15.9577 11.7136 16.0228 11.7053 16.0714 11.657C16.0622 11.2857 15.8618 10.9631 15.8364 10.5837C15.9822 10.4386 16.2086 10.422 16.4182 10.4466C16.4989 10.4788 16.5873 10.535 16.5959 10.6322C16.5714 10.7207 16.5472 10.8096 16.4581 10.8579C16.3617 10.9551 16.1761 10.8662 16.1115 10.9629C16.2646 11.2132 16.5553 11.3182 16.741 11.5601C16.8376 11.6732 16.9667 11.56 17.0879 11.5843V11.5277C16.9516 11.3505 16.7164 11.2856 16.6279 11.0675C16.789 10.8905 16.9428 10.6566 16.8208 10.4219C16.6977 10.2418 16.511 10.1792 16.3075 10.1758ZM17.9592 10.2368C17.7656 10.2688 17.5072 10.3415 17.4673 10.5596C17.4021 10.9955 17.9112 10.9387 18.1295 11.1246C18.1854 11.1729 18.1621 11.2539 18.1216 11.2941C17.8467 11.4392 17.5484 11.294 17.3221 11.1569C17.2736 11.2215 17.233 11.3019 17.2497 11.3828C17.3788 11.5362 17.5564 11.5924 17.7255 11.657C17.9439 11.665 18.1448 11.6735 18.3146 11.5441C18.4356 11.4312 18.4523 11.278 18.4523 11.1166C18.4118 10.9956 18.2911 10.8662 18.1688 10.8097C18.0478 10.7209 17.7813 10.7696 17.7813 10.5755C17.9916 10.4304 18.226 10.5511 18.4357 10.6241C18.4596 10.5511 18.5083 10.4703 18.4597 10.39C18.3145 10.3009 18.1369 10.2611 17.9592 10.2368ZM19.0054 10.4768C18.9742 10.4736 18.9484 10.4867 18.9361 10.5351L19.09 11.9232L19.1466 12.0687C19.3729 11.9961 19.5253 11.7699 19.711 11.6407C19.9126 11.3989 20.2114 11.2697 20.3812 11.0034C20.3241 10.9226 20.2114 10.8819 20.1144 10.8819L19.4527 11.5279L19.3727 11.544C19.2755 11.4151 19.2837 11.2055 19.2431 11.0275L19.1944 10.5838L19.1706 10.5431C19.1248 10.5331 19.0575 10.4821 19.0054 10.4768ZM15.1025 10.4865C15.0133 10.4949 14.8928 10.5029 14.8523 10.5917L14.7797 11.4795C14.7797 11.5278 14.7717 11.6003 14.7072 11.6088C14.4084 11.4876 14.1587 11.2455 13.8919 11.0601C13.8193 10.9386 13.6904 10.9954 13.6104 11.0676C13.5771 11.0922 13.5771 11.1568 13.6104 11.1728L14.8204 12.0687L14.9081 12.0765C15.03 11.6405 15.0219 11.189 15.0945 10.7291L15.1025 10.4865ZM20.7366 11.2054L20.0904 12.2543L20.0418 12.3994C20.0748 12.4723 20.1556 12.5367 20.2435 12.5448L20.5429 12.0846C20.5661 12.0523 20.6149 12.0281 20.6388 12.0687C20.672 12.2297 20.6148 12.3994 20.6874 12.5448C20.7365 12.5608 20.7845 12.5448 20.8246 12.5206C20.9544 12.448 21.1239 12.3914 21.2691 12.4078C21.1633 12.6334 20.9302 12.8031 20.8571 13.0371C20.8889 13.1019 20.9623 13.1423 21.0269 13.1582C21.3091 12.8111 21.6152 12.448 21.898 12.1166V12.0121C21.7045 11.7699 21.4636 12.0524 21.2526 12.0767C21.1401 12.101 21.0109 12.2058 20.9137 12.0925L20.9383 11.3102C20.8817 11.2452 20.8245 11.2054 20.7366 11.2054ZM13.2701 11.4634C13.0038 11.4634 12.7463 11.5603 12.5606 11.7539C12.4795 11.8588 12.4476 12.0038 12.4796 12.1412C12.7299 12.6015 13.1491 12.1494 13.4806 12.1577C13.6016 12.1736 13.6422 12.3103 13.6176 12.4078C13.5684 12.5369 13.424 12.6173 13.3114 12.674C13.181 12.7788 12.8676 12.6582 12.8995 12.8918C12.8995 13.0132 13.0284 13.0212 13.1256 13.005C13.4478 12.981 13.7714 12.779 13.9005 12.4642C13.9724 12.2708 13.86 12.0847 13.7383 11.9798C13.456 11.7539 13.1171 11.9797 12.8509 12.0846L12.7784 12.0364C12.7704 11.9072 12.8829 11.8184 12.988 11.7698C13.0925 11.6733 13.3915 11.8104 13.3269 11.5601L13.2701 11.4634ZM17.0504 19.9992C17.0103 19.9992 16.8973 20.0582 16.8894 20.089C16.8974 20.1283 17.0892 20.1873 17.1199 20.1406C17.1517 20.1086 17.0817 20.0066 17.0504 19.9992Z" fill="#AB0520"/>
</svg>
