<svg width="111" height="32" viewBox="0 0 111 32" fill="none" xmlns="http://www.w3.org/2000/svg">
<path d="M102.11 5.89563L104.478 21.7099H99.7415L102.11 5.89563ZM105.952 0.375279H98.7583L93.7558 31.6247H98.2592L99.1073 25.9505H105.138L105.986 31.6247H110.947L105.952 0.375279ZM70.7963 7.88085C70.7963 16.8125 80.3997 18.0134 80.3997 24.4531C80.3997 26.7048 79.4202 27.4892 77.8553 27.4892C76.2904 27.4892 75.3071 26.6861 75.3071 24.4531V22.2015H70.6649V24.1192C70.6649 29.1216 73.1643 32 77.9904 32C82.8165 32 85.3158 29.1404 85.3158 24.1192C85.3158 15.1875 75.7124 13.9866 75.7124 7.5506C75.7124 5.29893 76.6056 4.46581 78.1668 4.46581C79.7279 4.46581 80.6248 5.31394 80.6248 7.5506V8.84531H85.2708V7.88085C85.2708 2.85962 82.8127 0 78.0354 0C73.2581 0 70.7963 2.85962 70.7963 7.88085ZM55.9165 31.6247H60.964V0.375279H56.592V19.0717L51.5445 0.375279H45.3824V31.6247H49.8032V8.97666L55.9165 31.6247ZM22.0664 18.0134V31.636H35.4676V27.1589H26.9788V13.5325H31.8987V18.0134H22.0664ZM26.9788 4.82233H35.4676V0.375279H22.0664V13.5325H26.9788V4.82233ZM0 31.6247H12.9996V27.1589H4.9124V0.375279H0V31.6247Z" fill="#313233"/>
</svg>
