<svg width="188" height="37" viewBox="0 0 188 37" fill="none" xmlns="http://www.w3.org/2000/svg">
<g clip-path="url(#clip0_1_3429)">
<path d="M26.7286 21.025C23.8026 21.7497 22.9566 23.6273 21.5745 26.1128C20.25 28.4964 18.3612 30.6099 15.8356 31.694C14.5541 32.2436 12.9718 32.6523 11.5784 32.3409C14.0237 30.1656 14.3573 27.0424 14.3573 23.9089C14.3573 20.2087 16.6635 19.1211 17.4405 18.86C16.6635 18.5979 14.3573 17.5102 14.3573 13.8112C14.3573 10.6776 14.0237 7.55214 11.5784 5.37917C12.9718 5.06777 14.5541 5.47534 15.8356 6.02602C18.3612 7.11022 20.2466 9.22365 21.5745 11.6061C22.9566 14.0928 23.8026 15.9704 26.7286 16.6951C26.7286 16.6951 30.0799 17.5228 35.001 15.6498C34.2095 11.2647 31.8264 7.33766 28.3202 4.6404C24.8139 1.94314 20.4379 0.670637 16.052 1.07291C11.6661 1.47517 7.58729 3.52313 4.61709 6.8144C1.64689 10.1057 0 14.4023 0 18.86C0 23.3178 1.64689 27.6144 4.61709 30.9057C7.58729 34.1969 11.6661 36.2449 16.052 36.6472C20.4379 37.0494 24.8139 35.7769 28.3202 33.0797C31.8264 30.3824 34.2095 26.4554 35.001 22.0703C30.0799 20.1961 26.7297 21.025 26.7286 21.025Z" fill="#42175B"/>
<path d="M48.4214 22.5252C48.4937 22.5257 48.5654 22.5393 48.6329 22.5653C48.7096 22.5966 48.779 22.6438 48.8365 22.7038L50.0185 23.9632C49.5119 24.6409 48.8421 25.1758 48.0731 25.5168C47.2934 25.8648 46.3716 26.0388 45.3077 26.0388C44.4078 26.0543 43.5144 25.8828 42.6826 25.5351C41.9366 25.2179 41.266 24.7433 40.7157 24.1429C40.1648 23.5325 39.7416 22.8155 39.4715 22.0352C39.177 21.1849 39.0308 20.2892 39.0395 19.3883C39.0294 18.4703 39.199 17.5594 39.5383 16.7081C39.8519 15.9136 40.3256 15.194 40.9293 14.5951C41.533 13.9962 42.2534 13.5313 43.0445 13.23C43.9144 12.894 44.8392 12.7273 45.7703 12.7388C46.2277 12.7361 46.6843 12.7795 47.1332 12.8682C47.542 12.9487 47.9423 13.0683 48.3287 13.2254C48.6877 13.3705 49.0307 13.5532 49.3523 13.7704C49.6533 13.9722 49.9314 14.2072 50.1813 14.471L49.1758 15.8369C49.1102 15.9225 49.0342 15.9994 48.9496 16.0658C48.841 16.1407 48.7109 16.1769 48.5798 16.1689C48.4753 16.1694 48.3721 16.1446 48.2789 16.0967C48.176 16.0443 48.0759 15.9862 47.9792 15.9227L47.6308 15.6995C47.4873 15.6109 47.3358 15.5362 47.1784 15.4762C46.9806 15.4015 46.7771 15.3433 46.5699 15.3022C46.301 15.2518 46.0279 15.228 45.7545 15.2312C45.2459 15.2245 44.7413 15.3231 44.2717 15.5209C43.8323 15.7091 43.4392 15.9929 43.1203 16.3521C42.7861 16.7328 42.5297 17.1768 42.3659 17.6583C42.1803 18.2135 42.0896 18.7966 42.0978 19.3825C42.0881 19.9858 42.1787 20.5865 42.3659 21.1594C42.5243 21.6391 42.7732 22.0831 43.0988 22.4668C43.396 22.813 43.7648 23.089 44.1789 23.2751C44.5958 23.4607 45.0468 23.5551 45.5022 23.5522C45.7497 23.5532 45.9971 23.5399 46.2431 23.5121C46.4546 23.4881 46.6631 23.4417 46.8651 23.3736C47.0559 23.3084 47.2393 23.2232 47.4126 23.1194C47.5987 23.0058 47.7743 22.8756 47.9374 22.7301C48.0064 22.6719 48.0824 22.6227 48.1636 22.5836C48.2441 22.5448 48.3322 22.5248 48.4214 22.5252Z" fill="#42175B"/>
<path d="M64.0661 19.3826C64.0737 20.2808 63.9105 21.172 63.5854 22.0078C63.2786 22.8033 62.8131 23.5262 62.218 24.1315C61.623 24.7368 60.911 25.2115 60.1267 25.526C58.3664 26.2033 56.4218 26.2033 54.6615 25.526C53.875 25.2129 53.1609 24.7388 52.5638 24.1334C51.9667 23.5281 51.4995 22.8044 51.1915 22.0078C50.5508 20.3178 50.5508 18.4475 51.1915 16.7574C51.4977 15.9688 51.9595 15.2516 52.5487 14.6497C53.1522 14.0426 53.8709 13.5655 54.6615 13.2472C55.5318 12.8995 56.4608 12.7268 57.3964 12.7389C58.3309 12.7263 59.2588 12.9006 60.1267 13.2518C60.9145 13.5724 61.6301 14.051 62.2304 14.6589C62.8184 15.2614 63.28 15.9779 63.5877 16.7654C63.9114 17.5987 64.0738 18.4872 64.0661 19.3826ZM61.0123 19.3826C61.0201 18.7942 60.9369 18.2082 60.7657 17.6458C60.6196 17.1652 60.3779 16.7198 60.0554 16.3373C59.7457 15.9791 59.3587 15.6979 58.9244 15.5152C58.4397 15.318 57.9209 15.221 57.3986 15.2302C56.8719 15.2209 56.3486 15.3178 55.8593 15.5152C55.4224 15.6967 55.033 15.9781 54.7215 16.3373C54.399 16.7198 54.1572 17.1652 54.0112 17.6458C53.6824 18.7825 53.6824 19.9907 54.0112 21.1274C54.1572 21.6081 54.399 22.0534 54.7215 22.436C55.0323 22.7948 55.422 23.0748 55.8593 23.2534C56.3493 23.4482 56.8723 23.5435 57.3986 23.5339C57.9205 23.5434 58.4391 23.448 58.9244 23.2534C59.3591 23.0737 59.7464 22.7938 60.0554 22.436C60.3779 22.0534 60.6196 21.6081 60.7657 21.1274C60.9376 20.5624 61.0212 19.9737 61.0134 19.3826H61.0123Z" fill="#42175B"/>
<path d="M67.3889 12.9012C67.4713 12.9118 67.5517 12.9346 67.6276 12.9688C67.7016 13.0039 67.7698 13.0502 67.83 13.1061C67.9105 13.1817 67.986 13.2624 68.0562 13.3477L74.1639 21.1615C74.1401 20.9107 74.1231 20.6692 74.1107 20.4333C74.0983 20.1975 74.0937 19.9754 74.0937 19.7681V12.8829H76.7223V25.8944H75.1693C74.9703 25.8997 74.7723 25.863 74.588 25.7867C74.4055 25.6958 74.2478 25.561 74.1288 25.394L68.0687 17.6433C68.086 17.8722 68.1007 18.094 68.1128 18.3084C68.1249 18.5229 68.1305 18.7267 68.1298 18.9198V25.8944H65.4922V12.8829H67.0621C67.1713 12.882 67.2805 12.8882 67.3889 12.9012Z" fill="#42175B"/>
<path d="M88.1654 12.8828V15.2767H84.546V25.8943H81.5646V15.2767H77.9453V12.8828H88.1654Z" fill="#42175B"/>
<path d="M97.6731 12.8827V15.2045H92.398V18.2407H96.438V20.4732H92.398V23.5724H97.6731V25.8942H89.3984V12.8827H97.6731Z" fill="#42175B"/>
<path d="M101.259 12.9012C101.342 12.9115 101.422 12.9342 101.498 12.9687C101.572 13.0038 101.64 13.0502 101.701 13.1061C101.78 13.1813 101.853 13.262 101.921 13.3477L108.029 21.1614C108.005 20.9107 107.987 20.6691 107.976 20.4333C107.964 20.1974 107.957 19.9753 107.957 19.7681V12.8829H110.587V25.8943H109.034C108.835 25.8997 108.636 25.863 108.452 25.7867C108.272 25.6948 108.116 25.5601 107.999 25.394L101.938 17.6432C101.956 17.8722 101.971 18.0939 101.982 18.3084C101.995 18.5259 102 18.7297 102 18.9198V25.8943H99.3672V12.8829H100.937C101.045 12.8822 101.152 12.8883 101.259 12.9012Z" fill="#42175B"/>
<path d="M122.042 12.8828V15.2767H118.422V25.8943H115.44V15.2767H111.82V12.8828H122.042Z" fill="#42175B"/>
<path d="M143.722 13.0703L139.771 25.8929H138.074L134.986 16.3824C134.907 16.1587 134.845 15.929 134.801 15.6955C134.736 15.9703 134.675 16.1992 134.616 16.3824L131.493 25.894H129.807L125.855 13.0715H127.425C127.573 13.066 127.718 13.1086 127.84 13.1928C127.952 13.2703 128.032 13.3857 128.067 13.518L130.563 22.1045C130.609 22.2705 130.652 22.448 130.691 22.6495C130.729 22.851 130.769 23.0502 130.804 23.2654C130.846 23.0502 130.887 22.8452 130.932 22.6495C130.972 22.4648 131.024 22.2828 131.087 22.1045L133.945 13.518C133.985 13.3918 134.064 13.2821 134.171 13.2054C134.288 13.115 134.433 13.0678 134.58 13.0715H135.119C135.264 13.0656 135.407 13.1095 135.525 13.1962C135.629 13.2796 135.707 13.3912 135.751 13.518L138.6 22.1045C138.716 22.4706 138.81 22.8433 138.883 23.2207C138.953 22.8097 139.03 22.4377 139.109 22.1045L141.615 13.518C141.651 13.3897 141.732 13.2788 141.842 13.2054C141.961 13.1155 142.107 13.0684 142.256 13.0715L143.722 13.0703Z" fill="#42175B"/>
<path d="M155.894 13.0703V25.8929H154.015V20.1159H147.408V25.894H145.516V13.0715H147.403V18.7329H154.011V13.0703H155.894Z" fill="#42175B"/>
<path d="M169.473 25.8929H168.026C167.88 25.899 167.737 25.8545 167.62 25.7669C167.515 25.6843 167.437 25.573 167.393 25.4464L166.274 22.4697H160.689L159.569 25.4464C159.522 25.5675 159.444 25.6737 159.343 25.7543C159.228 25.8474 159.084 25.8964 158.937 25.8929H157.484L162.53 13.0703H164.427L169.473 25.8929ZM165.764 21.1153L163.885 16.1409C163.724 15.7211 163.588 15.2917 163.479 14.8552C163.415 15.1116 163.348 15.3498 163.28 15.5696C163.213 15.7905 163.146 15.9863 163.082 16.1592L161.211 21.1153H165.764Z" fill="#42175B"/>
<path d="M178.302 24.294V25.8968H171.051V13.0742H172.929V24.294H178.302Z" fill="#42175B"/>
<path d="M187.997 24.3473L187.988 25.8929H180.137V13.0703H187.988V14.6159H182.024V18.6779H186.823V20.1662H182.024V24.345L187.997 24.3473Z" fill="#42175B"/>
</g>
<defs>
<clipPath id="clip0_1_3429">
<rect width="188" height="37" fill="white"/>
</clipPath>
</defs>
</svg>
