<svg width="77" height="16" viewBox="0 0 77 16" fill="none" xmlns="http://www.w3.org/2000/svg">
<path d="M6.00787 5.87325C6.00787 5.87325 3.98021 6.09783 2.62757 6.24798C2.50566 6.26274 2.39786 6.34423 2.35743 6.46807C2.31701 6.59191 2.35743 6.72089 2.44727 6.80238C3.45212 7.71932 4.96196 9.09249 4.96196 9.09249C4.96067 9.09249 4.54744 11.09 4.27281 12.4227C4.24971 12.5434 4.29334 12.6711 4.39857 12.7474C4.50317 12.8238 4.63792 12.8251 4.74379 12.7654C5.92702 12.0929 7.69931 11.0817 7.69931 11.0817C7.69931 11.0817 9.47223 12.0929 10.6535 12.766C10.7613 12.8251 10.8961 12.8238 11.0007 12.7474C11.1059 12.6711 11.1495 12.5434 11.1258 12.4234C10.8512 11.09 10.4386 9.09249 10.4386 9.09249C10.4386 9.09249 11.9484 7.71932 12.9533 6.80431C13.0431 6.72025 13.0829 6.59127 13.0431 6.46807C13.0033 6.34487 12.8955 6.26338 12.7736 6.24926C11.421 6.09783 9.39267 5.87325 9.39267 5.87325C9.39267 5.87325 8.55208 4.0137 7.99191 2.774C7.93929 2.66299 7.82892 2.58535 7.69931 2.58535C7.56969 2.58535 7.45868 2.66363 7.40863 2.774C6.84782 4.0137 6.00787 5.87325 6.00787 5.87325Z" fill="#FBBA18"/>
<path d="M21.4078 5.87718C21.4078 5.87718 19.3802 6.10176 18.0275 6.25191C17.9056 6.26667 17.7978 6.34816 17.7574 6.472C17.717 6.59584 17.7574 6.72482 17.8472 6.80631C18.8521 7.72325 20.3619 9.09642 20.3619 9.09642C20.3606 9.09642 19.9474 11.0939 19.6728 12.4267C19.6497 12.5473 19.6933 12.675 19.7985 12.7514C19.9031 12.8277 20.0379 12.829 20.1438 12.7693C21.327 12.0969 23.0993 11.0856 23.0993 11.0856C23.0993 11.0856 24.8722 12.0969 26.0535 12.77C26.1613 12.829 26.2961 12.8277 26.4007 12.7514C26.5059 12.675 26.5495 12.5473 26.5258 12.4273C26.2511 11.0939 25.8386 9.09642 25.8386 9.09642C25.8386 9.09642 27.3484 7.72325 28.3533 6.80823C28.4431 6.72418 28.4829 6.5952 28.4431 6.472C28.4033 6.3488 28.2955 6.26731 28.1736 6.25319C26.8209 6.10176 24.7926 5.87718 24.7926 5.87718C24.7926 5.87718 23.9521 4.01763 23.3919 2.77793C23.3393 2.66692 23.2289 2.58928 23.0993 2.58928C22.9697 2.58928 22.8587 2.66756 22.8086 2.77793C22.2478 4.01763 21.4078 5.87718 21.4078 5.87718Z" fill="#FBBA18"/>
<path d="M36.804 5.87325C36.804 5.87325 34.7763 6.09783 33.4237 6.24798C33.3017 6.26274 33.1939 6.34423 33.1535 6.46807C33.1131 6.59191 33.1535 6.72089 33.2433 6.80238C34.2482 7.71932 35.758 9.09249 35.758 9.09249C35.7568 9.09249 35.3435 11.09 35.0689 12.4227C35.0458 12.5434 35.0894 12.6711 35.1947 12.7474C35.2992 12.8238 35.434 12.8251 35.5399 12.7654C36.7231 12.0929 38.4954 11.0817 38.4954 11.0817C38.4954 11.0817 40.2683 12.0929 41.4496 12.766C41.5574 12.8251 41.6922 12.8238 41.7968 12.7474C41.902 12.6711 41.9456 12.5434 41.9219 12.4234C41.6473 11.09 41.2347 9.09249 41.2347 9.09249C41.2347 9.09249 42.7445 7.71932 43.7494 6.80431C43.8392 6.72025 43.879 6.59127 43.8392 6.46807C43.7994 6.34487 43.6916 6.26338 43.5697 6.24926C42.2171 6.09783 40.1887 5.87325 40.1887 5.87325C40.1887 5.87325 39.3482 4.0137 38.788 2.774C38.7354 2.66299 38.625 2.58535 38.4954 2.58535C38.3658 2.58535 38.2548 2.66363 38.2047 2.774C37.6439 4.0137 36.804 5.87325 36.804 5.87325Z" fill="#FBBA18"/>
<path d="M52.2079 5.87718C52.2079 5.87718 50.1802 6.10176 48.8276 6.25191C48.7056 6.26667 48.5978 6.34816 48.5574 6.472C48.517 6.59584 48.5574 6.72482 48.6473 6.80631C49.6521 7.72325 51.1619 9.09642 51.1619 9.09642C51.1607 9.09642 50.7474 11.0939 50.4728 12.4267C50.4497 12.5473 50.4933 12.675 50.5986 12.7514C50.7032 12.8277 50.8379 12.829 50.9438 12.7693C52.127 12.0969 53.8993 11.0856 53.8993 11.0856C53.8993 11.0856 55.6722 12.0969 56.8535 12.77C56.9613 12.829 57.0961 12.8277 57.2007 12.7514C57.3059 12.675 57.3495 12.5473 57.3258 12.4273C57.0512 11.0939 56.6386 9.09642 56.6386 9.09642C56.6386 9.09642 58.1484 7.72325 59.1533 6.80823C59.2431 6.72418 59.2829 6.5952 59.2431 6.472C59.2033 6.3488 59.0955 6.26731 58.9736 6.25319C57.621 6.10176 55.5927 5.87718 55.5927 5.87718C55.5927 5.87718 54.7521 4.01763 54.1919 2.77793C54.1393 2.66692 54.0289 2.58928 53.8993 2.58928C53.7697 2.58928 53.6587 2.66756 53.6086 2.77793C53.0478 4.01763 52.2079 5.87718 52.2079 5.87718Z" fill="#FBBA18"/>
<path d="M67.6 5.8811C67.6 5.8811 65.5724 6.10569 64.2197 6.25584C64.0978 6.2706 63.99 6.35209 63.9496 6.47593C63.9092 6.59977 63.9496 6.72875 64.0394 6.81024C65.0443 7.72718 66.5541 9.10035 66.5541 9.10035C66.5528 9.10035 66.1396 11.0979 65.865 12.4306C65.8419 12.5512 65.8855 12.6789 65.9907 12.7553C66.0953 12.8316 66.2301 12.8329 66.336 12.7732C67.5192 12.1008 69.2915 11.0895 69.2915 11.0895C69.2915 11.0895 71.0644 12.1008 72.2457 12.7739C72.3535 12.8329 72.4883 12.8316 72.5928 12.7553C72.6981 12.6789 72.7417 12.5512 72.718 12.4312C72.4433 11.0979 72.0307 9.10035 72.0307 9.10035C72.0307 9.10035 73.5406 7.72718 74.5454 6.81216C74.6353 6.7281 74.6751 6.59913 74.6353 6.47593C74.5955 6.35273 74.4877 6.27124 74.3658 6.25712C73.0131 6.10569 70.9848 5.8811 70.9848 5.8811C70.9848 5.8811 70.1442 4.02155 69.5841 2.78185C69.5315 2.67085 69.4211 2.5932 69.2915 2.5932C69.1619 2.5932 69.0508 2.67149 69.0008 2.78185C68.44 4.02155 67.6 5.8811 67.6 5.8811Z" fill="#BCBCBC"/>
<g clip-path="url(#clip0_1_1441)">
<path d="M67.6 5.8811C67.6 5.8811 65.5724 6.10569 64.2197 6.25584C64.0978 6.2706 63.99 6.35209 63.9496 6.47593C63.9092 6.59977 63.9496 6.72875 64.0394 6.81024C65.0443 7.72718 66.5541 9.10035 66.5541 9.10035C66.5528 9.10035 66.1396 11.0979 65.865 12.4306C65.8419 12.5512 65.8855 12.6789 65.9907 12.7553C66.0953 12.8316 66.2301 12.8329 66.336 12.7732C67.5192 12.1008 69.2915 11.0895 69.2915 11.0895C69.2915 11.0895 71.0644 12.1008 72.2457 12.7739C72.3535 12.8329 72.4883 12.8316 72.5928 12.7553C72.6981 12.6789 72.7417 12.5512 72.718 12.4312C72.4433 11.0979 72.0307 9.10035 72.0307 9.10035C72.0307 9.10035 73.5406 7.72718 74.5454 6.81216C74.6353 6.7281 74.6751 6.59913 74.6353 6.47593C74.5955 6.35273 74.4877 6.27124 74.3658 6.25712C73.0131 6.10569 70.9848 5.8811 70.9848 5.8811C70.9848 5.8811 70.1442 4.02155 69.5841 2.78185C69.5315 2.67085 69.4211 2.5932 69.2915 2.5932C69.1619 2.5932 69.0508 2.67149 69.0008 2.78185C68.44 4.02155 67.6 5.8811 67.6 5.8811Z" fill="#FBBA18"/>
</g>
<defs>
<clipPath id="clip0_1_1441">
<rect width="5.10348" height="10.207" fill="white" transform="translate(64.1657 2.56963) scale(1.00585)"/>
</clipPath>
</defs>
</svg>
