<svg width="19" height="16" viewBox="0 0 19 16" fill="none" xmlns="http://www.w3.org/2000/svg">
<path d="M18.3644 7.48984L11.1276 0.252973C10.8677 -0.0505841 10.4108 -0.085971 10.1073 0.174052C9.8037 0.434013 9.76832 0.890873 10.0283 1.19443C10.0526 1.22273 10.079 1.24916 10.1073 1.27335L16.1066 7.27995H0.723661C0.324018 7.27995 0 7.60396 0 8.00367C0 8.40337 0.324018 8.72733 0.723661 8.72733H16.1066L10.1073 14.7266C9.8037 14.9866 9.76832 15.4435 10.0283 15.747C10.2884 16.0506 10.7452 16.086 11.0487 15.8259C11.077 15.8017 11.1034 15.7753 11.1276 15.747L18.3645 8.51016C18.6451 8.22799 18.6451 7.77213 18.3644 7.48984Z" fill="white"/>
</svg>
