<svg width="144" height="22" viewBox="0 0 144 22" fill="none" xmlns="http://www.w3.org/2000/svg">
<path d="M8.832 7.536C8.832 7.536 7.632 7.416 7.632 8.472V13.2H15.504V14.616C15.504 14.616 15.528 15.312 14.784 15.312H7.632V21.456H16.224C16.224 21.456 21.432 20.664 21.48 15.312V7.536H8.832ZM21.24 0H5.736C0.12 1.32 0 5.928 0 5.928V21.48H5.952V7.32C5.952 6.12 7.152 5.904 7.152 5.904H21.216L21.24 0ZM41.712 17.016C41.304 17.28 40.992 17.496 40.776 17.616C40.008 18.096 39.288 18.456 38.616 18.744C37.632 19.152 36.768 19.344 35.976 19.344C33.288 19.344 31.056 18.528 29.28 16.872C27.48 15.216 26.592 13.128 26.592 10.632C26.592 8.208 27.384 6.12 29.016 4.32C30.624 2.544 32.592 1.656 34.896 1.656C35.856 1.656 36.888 1.824 37.944 2.16C39.336 2.592 40.44 3.264 41.352 4.104L39.816 5.808C39.168 5.16 38.304 4.704 37.32 4.416C36.576 4.2 35.76 4.08 34.848 4.08C33.24 4.08 31.872 4.728 30.768 6.024C29.688 7.344 29.136 8.88 29.136 10.704C29.136 12.504 29.76 13.992 31.008 15.168C32.256 16.344 33.84 16.944 35.76 16.944C36.552 16.944 37.368 16.68 38.208 16.2C38.904 15.672 39.264 15.408 39.264 15.408V11.664H34.056L34.8 9.336H41.712V17.016ZM57.384 12.456C57.384 14.256 56.736 15.816 55.464 17.136C54.192 18.456 52.608 19.128 50.712 19.128C48.96 19.128 47.448 18.48 46.128 17.184C44.808 15.888 44.16 14.328 44.16 12.48C44.16 10.656 44.784 9.096 46.032 7.752C47.28 6.408 48.816 5.76 50.592 5.76C52.584 5.76 54.192 6.408 55.464 7.68C56.736 8.928 57.384 10.536 57.384 12.456ZM54.96 12.504C54.96 11.28 54.552 10.248 53.736 9.408C52.92 8.544 51.912 8.136 50.688 8.136C49.56 8.136 48.6 8.568 47.784 9.456C46.992 10.32 46.584 11.328 46.584 12.456C46.584 13.632 46.992 14.64 47.784 15.48C48.576 16.32 49.584 16.752 50.784 16.752C51.912 16.752 52.872 16.344 53.688 15.504C54.552 14.64 54.96 13.632 54.96 12.504ZM72.864 12.456C72.864 14.256 72.216 15.816 70.944 17.136C69.672 18.456 68.088 19.128 66.192 19.128C64.44 19.128 62.928 18.48 61.608 17.184C60.288 15.888 59.64 14.328 59.64 12.48C59.64 10.656 60.264 9.096 61.512 7.752C62.76 6.408 64.296 5.76 66.072 5.76C68.064 5.76 69.672 6.408 70.944 7.68C72.216 8.928 72.864 10.536 72.864 12.456ZM70.416 12.504C70.416 11.28 70.008 10.248 69.192 9.408C68.376 8.544 67.368 8.136 66.144 8.136C65.016 8.136 64.056 8.568 63.24 9.456C62.448 10.32 62.04 11.328 62.04 12.456C62.04 13.632 62.448 14.64 63.24 15.48C64.032 16.32 65.04 16.752 66.24 16.752C67.368 16.752 68.328 16.344 69.144 15.504C70.008 14.64 70.416 13.632 70.416 12.504ZM87.168 18.768L84.936 19.104V16.944L84.456 17.496C84.024 17.904 83.544 18.216 83.04 18.48C82.272 18.84 81.456 19.008 80.616 19.008C78.864 19.008 77.376 18.36 76.176 17.088C74.976 15.816 74.352 14.256 74.352 12.48C74.352 10.632 74.952 9.048 76.152 7.752C77.352 6.432 78.792 5.784 80.544 5.784C81.552 5.784 82.416 5.952 83.136 6.264C83.664 6.504 84.096 6.816 84.48 7.2C84.6 7.368 84.72 7.536 84.864 7.704V2.016L87.24 1.68L87.168 18.768ZM85.08 12.624C85.08 11.352 84.648 10.272 83.784 9.408C82.92 8.52 81.936 8.088 80.808 8.088C79.56 8.088 78.576 8.496 77.808 9.336C77.088 10.128 76.728 11.112 76.728 12.264C76.728 13.56 77.112 14.64 77.856 15.48C78.6 16.32 79.536 16.728 80.712 16.728C81.84 16.728 82.848 16.344 83.736 15.552C84.624 14.76 85.08 13.776 85.08 12.624ZM99.744 4.368H93.072V8.904H98.256V11.232H93.072V18.744L90.48 19.128V2.016H99.24L99.744 4.368ZM105.096 3.048L103.488 5.064L101.952 3.048L103.56 1.056L105.096 3.048ZM104.616 18.768L102.24 19.104V6.432L104.616 6.072V18.768ZM115.368 5.928L114.24 8.52C114.096 8.496 113.952 8.496 113.784 8.496C113.544 8.496 113.328 8.52 113.088 8.544C112.848 8.568 112.608 8.664 112.344 8.808C111.84 9.024 111.408 9.50399 111.048 10.2C110.64 11.016 110.424 11.904 110.424 12.816V18.744L108.048 19.128V6.432L110.256 6.024V8.664C110.544 8.208 110.832 7.752 111.12 7.272C111.528 6.792 112.008 6.456 112.536 6.24C112.824 6.12 113.328 6.048 114.12 5.976C114.888 5.928 115.32 5.904 115.368 5.928ZM133.128 18.768L130.752 19.104V10.416C130.752 9.624 130.584 9.024 130.224 8.664C129.864 8.304 129.336 8.112 128.64 8.112C127.8 8.112 127.176 8.448 126.744 9.144C126.456 9.624 126.288 10.128 126.288 10.632V18.72L123.912 19.152V10.44C123.912 9.672 123.744 9.096 123.384 8.688C123.024 8.28 122.568 8.088 121.968 8.088H121.728C120.888 8.088 120.288 8.424 119.904 9.144C119.616 9.672 119.472 10.344 119.472 11.16V18.696L117 19.128V6.384L119.232 6V7.632C119.472 7.248 119.736 6.936 119.952 6.72C120.6 6.12 121.344 5.832 122.184 5.832C123.12 5.832 123.816 5.976 124.296 6.288C124.704 6.552 125.088 7.056 125.496 7.776C126.312 6.48 127.464 5.832 129 5.832C130.464 5.832 131.544 6.288 132.264 7.224C132.84 7.992 133.128 9.12 133.128 10.584V18.768ZM144 14.928C144 16.104 143.592 17.064 142.776 17.808C141.96 18.576 140.928 18.936 139.68 18.936C138.744 18.936 137.904 18.72 137.136 18.288C136.368 17.856 135.792 17.352 135.432 16.776L137.112 15.288C137.232 15.48 137.352 15.624 137.448 15.72C138.072 16.368 138.816 16.68 139.68 16.68C140.28 16.68 140.76 16.512 141.096 16.2C141.456 15.888 141.624 15.456 141.624 14.88C141.624 14.232 141.216 13.8 140.4 13.56C138.792 13.08 137.904 12.792 137.784 12.744C137.04 12.36 136.512 11.952 136.176 11.496C135.792 10.968 135.6 10.272 135.6 9.384C135.6 8.28 136.008 7.392 136.8 6.648C137.592 5.928 138.552 5.568 139.656 5.568C140.496 5.568 141.264 5.76 141.984 6.144C142.704 6.528 143.208 6.936 143.52 7.392L142.104 8.928C141.888 8.712 141.648 8.52 141.408 8.352C140.832 7.944 140.28 7.752 139.776 7.752C139.272 7.752 138.864 7.872 138.552 8.088C138.168 8.352 137.976 8.76 137.976 9.288C137.976 9.792 138.144 10.176 138.528 10.416C138.84 10.608 139.512 10.824 140.592 11.064C141.648 11.328 142.488 11.76 143.064 12.384C143.736 13.056 144 13.872 144 14.928Z" fill="#3A7AF3"/>
</svg>
