<svg width="41" height="56" viewBox="0 0 41 56" fill="none" xmlns="http://www.w3.org/2000/svg">
<path d="M12.7743 9.46297C12.7743 8.93717 13.1591 8.49105 13.6779 8.41534L38.0331 4.86093C38.6698 4.768 39.2407 5.26319 39.2407 5.90855V49.4952C39.2407 50.1288 38.6895 50.6205 38.0621 50.5467L13.7069 47.6805C13.1751 47.6179 12.7743 47.166 12.7743 46.6291V9.46297Z" fill="white" stroke="#A3131D" stroke-width="3.48989"/>
<path d="M0 6.94083C0 5.53329 1.03383 4.3408 2.42367 4.14516L31.6743 0.0279146C33.368 -0.210477 34.8805 1.10839 34.8805 2.82358V52.8472C34.8805 54.5427 33.4006 55.8558 31.7224 55.6491L2.47181 52.0465C1.06046 51.8726 0 50.6706 0 49.2445V6.94083Z" fill="#A3131D"/>
</svg>
