<svg width="107" height="36" viewBox="0 0 107 36" fill="none" xmlns="http://www.w3.org/2000/svg">
<path d="M81.8359 17.8734C81.8359 17.5443 81.8181 17.2152 81.8003 16.9039C81.7825 16.5927 81.7292 16.2636 81.6936 15.9523H77.2467H72.7997L71.4478 18.069L70.096 20.1858H76.9532C76.5529 21.5732 75.7614 22.765 74.703 23.601C73.6446 24.446 72.3105 24.9529 70.7541 24.9529C68.8153 24.9529 67.0987 24.1525 65.8358 22.8539C64.5729 21.5554 63.808 19.7856 63.808 17.8289C63.808 15.9078 64.5729 14.1557 65.8536 12.875C67.1165 11.5943 68.8686 10.7938 70.8075 10.7938C71.6524 10.7938 72.4351 10.9184 73.1644 11.1763C73.8937 11.4164 74.5518 11.7811 75.1388 12.2169L76.3306 10.3136L77.5224 8.41028C76.6063 7.76993 75.5835 7.25408 74.454 6.92501C73.3422 6.57815 72.1149 6.40916 70.8342 6.40916C69.1176 6.40916 67.5612 6.72045 66.1916 7.28966C64.8219 7.85887 63.5945 8.6771 62.5717 9.6999C60.1437 12.1279 59.4411 14.6004 58.9697 16.8506C58.4717 19.1185 58.2049 21.1819 56.5417 22.8273C55.848 23.521 55.1009 24.0546 54.256 24.4015C53.4111 24.7483 52.5217 24.9351 51.5522 24.9351C49.56 24.9351 47.7634 24.108 46.4471 22.8184C45.1486 21.5199 44.3482 19.75 44.3482 17.8289C44.3482 15.9434 45.1486 14.1913 46.4471 12.8928C47.7457 11.5943 49.5333 10.7761 51.5522 10.7494C52.3972 10.7672 53.162 10.8917 53.8735 11.114C54.585 11.3364 55.2432 11.6832 55.8302 12.119L57.0398 10.2157L58.2493 8.31245C57.3333 7.67209 56.3105 7.18293 55.1987 6.85386C54.087 6.52478 52.8596 6.3558 51.5789 6.3558C49.6045 6.3558 47.7545 6.82718 46.1448 7.67209C44.535 8.51701 43.1653 9.6999 42.1247 11.1318C41.7245 9.86888 40.8796 8.79272 39.7323 8.04564C38.5761 7.28076 37.1175 6.83607 35.4721 6.83607H30.3136H25.1641V17.8645V28.8573H36.5038C37.9268 28.8573 39.2075 28.5105 40.2659 27.9235C41.3243 27.3365 42.1692 26.5004 42.7562 25.5132C43.8146 26.6872 45.0953 27.63 46.5628 28.2881C48.0303 28.9463 49.6489 29.3109 51.4099 29.3109C53.4555 29.3109 55.341 28.8395 56.9686 27.9768C58.5962 27.1141 59.9658 25.8957 61.0242 24.3748C62.0292 25.8779 63.3989 27.0963 65.0443 27.959C66.6718 28.8217 68.5929 29.3109 70.6385 29.3109C73.8047 29.3109 76.5974 28.0302 78.6074 25.949C80.6174 23.9034 81.8359 21.0396 81.8359 17.8734ZM29.9312 15.7744V10.9628H35.3654C36.0591 10.9628 36.6639 11.2208 37.0997 11.6388C37.5355 12.0568 37.8112 12.6616 37.8112 13.3553C37.8112 14.049 37.5355 14.6538 37.0997 15.0718C36.6639 15.5076 36.0413 15.7655 35.3654 15.7655H32.6527H29.9312V15.7744ZM29.9312 24.7839V19.7945H36.4415C37.1708 19.7945 37.8112 20.0702 38.2915 20.506C38.7628 20.9418 39.0563 21.5643 39.0563 22.2758C39.0563 22.9874 38.7628 23.6099 38.2915 24.0635C37.8201 24.5171 37.1797 24.7928 36.4415 24.7928H33.1864H29.9312V24.7839Z" fill="#42175B"/>
</svg>
