<svg width="107" height="36" viewBox="0 0 107 36" fill="none" xmlns="http://www.w3.org/2000/svg">
<path d="M52.3928 17.8335L42.7851 8.22582V27.3701L52.3928 17.8335ZM33.2485 17.8335L42.8562 8.22582H23.6408L33.2485 17.8335ZM14.0331 17.8335L23.6408 27.4412V8.22582L14.0331 17.8335ZM33.2485 17.8335L23.6408 27.4412H42.7851L33.2485 17.8335Z" fill="#42175B"/>
<path d="M62.4357 18.5451H58.0945V22.8152H55.9594V12.8517H58.0945V16.9794H62.4357V12.8517H64.5708V22.8152H62.4357V18.5451ZM69.8372 23.0287C67.7022 23.0287 65.923 22.1747 65.8518 19.755H67.9868C67.9868 20.8225 68.6274 21.463 69.8372 21.463C70.6912 21.463 71.6876 21.036 71.6876 20.0397C71.6876 19.2568 71.0471 19.0433 69.9084 18.6875L69.1967 18.474C67.631 18.047 66.0653 17.4065 66.0653 15.6272C66.0653 13.421 68.1292 12.6382 70.0507 12.6382C71.9723 12.6382 73.6803 13.2787 73.6803 15.5561H71.5453C71.4741 14.6309 70.9047 14.1327 69.9084 14.1327C69.1255 14.1327 68.3427 14.5597 68.3427 15.4849C68.3427 16.1966 68.9832 16.4101 70.4066 16.9083L71.1894 17.1218C72.8975 17.6911 73.965 18.2605 73.965 19.8973C73.965 22.1747 71.7588 23.0287 69.8372 23.0287ZM75.1748 12.8517H78.6621C79.3026 12.8517 80.0143 12.8517 80.6548 12.994C81.8647 13.2787 82.7898 14.0615 82.7898 15.4137C82.7898 16.6948 82.007 17.3353 80.7971 17.6911C82.1493 17.9758 83.1457 18.6163 83.1457 20.1108C83.1457 22.3882 80.8683 22.8864 79.1603 22.8864H75.246L75.1748 12.8517ZM78.6621 17.0506C79.5873 17.0506 80.5836 16.8371 80.5836 15.6984C80.5836 14.6309 79.6584 14.3462 78.8044 14.3462H77.3099V16.9794L78.6621 17.0506ZM78.8756 21.3207C79.8719 21.3207 80.8683 21.1072 80.8683 19.8973C80.8683 18.6875 80.0143 18.474 79.0179 18.474H77.3099V21.3919L78.8756 21.3207ZM88.768 23.0287C85.5654 23.0287 84.142 20.9649 84.142 17.9046C84.142 14.8444 85.7077 12.6382 88.9103 12.6382C90.903 12.6382 92.8246 13.5634 92.8957 15.7696H90.6183C90.476 14.7732 89.8355 14.2751 88.9103 14.2751C86.9176 14.2751 86.3482 16.4101 86.3482 17.9758C86.3482 19.5415 86.9176 21.3919 88.8391 21.3919C89.8355 21.3919 90.5472 20.8225 90.6895 19.8262H92.9669C92.611 22.1747 90.8318 23.0287 88.768 23.0287Z" fill="#42175B"/>
</svg>
