<svg width="56" height="56" viewBox="0 0 56 56" fill="none" xmlns="http://www.w3.org/2000/svg">
<path d="M36.6046 43.085C36.4733 42.7654 36.2503 42.4918 35.9638 42.2988C35.6773 42.1057 35.34 42.0017 34.9946 42H33.2446V36.75C33.2446 36.2859 33.0602 35.8408 32.732 35.5126C32.4038 35.1844 31.9587 35 31.4946 35H24.4946C24.0304 35 23.5853 35.1844 23.2571 35.5126C22.9289 35.8408 22.7446 36.2859 22.7446 36.75V42H20.9946C20.647 41.998 20.3066 42.0995 20.017 42.2917C19.7273 42.4838 19.5014 42.7579 19.3682 43.0789C19.2349 43.3999 19.2002 43.7534 19.2686 44.0942C19.3369 44.435 19.5053 44.7477 19.7521 44.9925L26.7521 51.9925C27.0799 52.3184 27.5235 52.5014 27.9858 52.5014C28.4481 52.5014 28.8917 52.3184 29.2196 51.9925L36.2196 44.9925C36.4653 44.7484 36.6331 44.4368 36.7016 44.0972C36.7702 43.7576 36.7364 43.4054 36.6046 43.085Z" fill="#E53A35"/>
<path d="M52.2322 4.3225C52.0746 4.07031 51.8553 3.86244 51.595 3.71853C51.3348 3.57462 51.0421 3.49941 50.7447 3.5H5.2447C4.94639 3.50091 4.65326 3.57805 4.39315 3.72411C4.13304 3.87018 3.91459 4.08031 3.75854 4.33455C3.60249 4.58879 3.51402 4.8787 3.50153 5.17675C3.48905 5.47481 3.55296 5.7711 3.6872 6.0375L7.1872 13.0375C7.33263 13.3261 7.55513 13.5688 7.83004 13.7387C8.10495 13.9086 8.42154 13.999 8.7447 14H47.2447C47.5679 13.999 47.8845 13.9086 48.1594 13.7387C48.4343 13.5688 48.6568 13.3261 48.8022 13.0375L52.3022 6.0375C52.4388 5.7697 52.5042 5.47122 52.4919 5.17083C52.4796 4.87044 52.3902 4.57828 52.2322 4.3225Z" fill="#70B2E2"/>
<path d="M46.9298 16.5025C46.769 16.2707 46.5545 16.0812 46.3047 15.9502C46.0548 15.8191 45.777 15.7505 45.4948 15.75H10.4948C10.2111 15.7508 9.93182 15.8207 9.68107 15.9534C9.43032 16.0862 9.21561 16.278 9.05545 16.5122C8.89529 16.7464 8.79448 17.016 8.76171 17.2979C8.72894 17.5797 8.76519 17.8653 8.86734 18.13L11.5623 25.13C11.6892 25.4589 11.9125 25.7418 12.2029 25.9416C12.4933 26.1415 12.8373 26.249 13.1898 26.25H42.7998C43.1524 26.249 43.4963 26.1415 43.7868 25.9416C44.0772 25.7418 44.3004 25.4589 44.4273 25.13L47.1223 18.13C47.2255 17.8636 47.2619 17.576 47.2284 17.2923C47.1948 17.0086 47.0923 16.7375 46.9298 16.5025Z" fill="#FFD54F"/>
<path d="M41.6266 28.6835C41.4635 28.4718 41.2542 28.3001 41.0145 28.1818C40.7749 28.0635 40.5113 28.0017 40.2441 28.001H15.7441C15.4704 27.9916 15.1984 28.0465 14.9498 28.1613C14.7012 28.2761 14.4831 28.4476 14.3128 28.6621C14.1426 28.8766 14.0251 29.128 13.9697 29.3961C13.9144 29.6643 13.9227 29.9417 13.9941 30.206L15.8841 37.206C15.9866 37.5878 16.2154 37.9236 16.5332 38.1588C16.8509 38.3939 17.239 38.5146 17.6341 38.501H38.3541C38.7491 38.5146 39.1372 38.3939 39.4549 38.1588C39.7727 37.9236 40.0015 37.5878 40.1041 37.206L41.9941 30.206C42.0553 29.9412 42.0539 29.6657 41.9901 29.4014C41.9263 29.1371 41.8019 28.8913 41.6266 28.6835Z" fill="#66BB6A"/>
<path d="M36.6061 43.085C36.4748 42.7654 36.2519 42.4918 35.9654 42.2988C35.6788 42.1057 35.3416 42.0017 34.9961 42H33.2461V36.75C33.2461 36.2859 33.0617 35.8408 32.7335 35.5126C32.4053 35.1844 31.9602 35 31.4961 35H27.9961V52.5C28.2264 52.5013 28.4547 52.4572 28.6679 52.3701C28.8811 52.283 29.0751 52.1547 29.2386 51.9925L36.2386 44.9925C36.4814 44.7464 36.6459 44.4339 36.7113 44.0944C36.7767 43.7549 36.7401 43.4037 36.6061 43.085Z" fill="#D32E2E"/>
<path d="M52.2336 4.3225C52.076 4.07031 51.8567 3.86244 51.5964 3.71853C51.3361 3.57462 51.0435 3.49941 50.7461 3.5H27.9961V14H47.2461C47.5693 13.999 47.8858 13.9086 48.1608 13.7387C48.4357 13.5688 48.6582 13.3261 48.8036 13.0375L52.3036 6.0375C52.4402 5.7697 52.5056 5.47122 52.4933 5.17083C52.481 4.87044 52.3916 4.57828 52.2336 4.3225Z" fill="#57A0D7"/>
<path d="M46.9311 16.5025C46.7703 16.2707 46.5558 16.0812 46.3059 15.9502C46.0561 15.8191 45.7782 15.7505 45.4961 15.75H27.9961V26.25H42.8011C43.1536 26.249 43.4976 26.1415 43.788 25.9416C44.0784 25.7418 44.3017 25.4589 44.4286 25.13L47.1236 18.13C47.2268 17.8636 47.2632 17.576 47.2296 17.2923C47.1961 17.0086 47.0936 16.7375 46.9311 16.5025Z" fill="#FFCB29"/>
<path d="M41.6286 28.6825C41.4656 28.4707 41.2562 28.2991 41.0166 28.1808C40.7769 28.0625 40.5134 28.0006 40.2461 28H27.9961V38.5H38.3561C38.7512 38.5135 39.1392 38.3929 39.457 38.1578C39.7747 37.9226 40.0035 37.5868 40.1061 37.205L41.9961 30.205C42.0573 29.9401 42.056 29.6646 41.9922 29.4003C41.9284 29.1361 41.8039 28.8903 41.6286 28.6825Z" fill="#42A047"/>
</svg>
