<svg width="107" height="36" viewBox="0 0 107 36" fill="none" xmlns="http://www.w3.org/2000/svg">
<path d="M53.3075 11.3207C55.4992 11.3207 57.6399 11.1169 59.7807 11.3972C62.3292 11.754 62.6095 14.5574 61.7685 16.0865C61.4117 16.6471 60.7236 16.9784 60.3159 17.3862C60.5962 17.5136 60.9275 17.6665 61.2843 17.8704C62.4566 18.635 63.0173 19.7308 62.6605 21.3109C62.3802 22.7636 61.4882 23.8594 60.0355 24.0633C57.8183 24.3436 55.5502 24.2672 53.3584 24.3436C53.3075 19.8073 53.3075 15.5258 53.3075 11.3207ZM56.0853 22.0755C56.8499 22.0755 57.589 22.1519 58.3535 22.0755C59.3984 21.948 59.8571 21.3109 59.8571 20.215C59.8571 19.1192 59.3729 18.2782 58.4045 18.1507C57.6399 18.0743 56.8244 18.1507 56.0599 18.1507C56.0853 19.4505 56.0853 20.6993 56.0853 22.0755ZM56.0853 13.3086C56.0853 14.5574 56.0853 15.6532 56.0853 16.902C56.697 16.902 57.2577 16.902 57.8693 16.902C58.8377 16.902 59.322 16.2903 59.3729 15.3984C59.4494 14.226 58.8887 13.4615 57.9967 13.4105C57.3086 13.2576 56.7734 13.3086 56.0853 13.3086Z" fill="#42175B"/>
<path d="M51.0395 24.1397C50.1475 24.0632 49.1026 24.6239 48.6184 23.3242C48.2616 23.4516 48.0577 23.6045 47.8029 23.7319C45.7386 24.8278 43.5214 24.1397 42.6294 21.999C41.8648 20.266 41.8648 18.5585 42.7568 16.9019C43.8527 14.9651 45.866 14.5573 47.9303 14.9651C48.1342 15.0415 48.2871 15.0925 48.6184 15.169C48.6184 14.4044 48.6184 13.7928 48.6184 13.1811C48.6184 12.5695 48.6184 11.9324 48.6184 11.2443C49.4339 11.2443 50.2749 11.2443 51.0395 11.2443C51.0395 15.5257 51.0395 19.8072 51.0395 24.1397ZM48.5674 19.374C48.5674 18.8133 48.5674 18.2781 48.5674 17.7939C48.5674 17.59 48.491 17.3862 48.44 17.2332C47.4716 16.4177 45.2798 16.4177 44.9231 18.0488C44.7956 18.6604 44.7192 19.3485 44.7956 20.0366C44.9231 21.8206 46.4522 22.6616 48.0322 21.8206C48.44 21.6167 48.7203 21.3363 48.6439 20.8521C48.491 20.3424 48.5674 19.8582 48.5674 19.374Z" fill="#42175B"/>
<path d="M41.2022 20.0617C38.8576 20.0617 36.6658 20.0617 34.5251 20.0617C34.6015 21.234 35.4171 22.2024 36.6658 22.126C37.7617 22.0495 38.883 21.8456 40.0299 21.6417C40.0299 22.126 40.0299 22.6866 40.0299 23.2983C40.0299 23.4257 39.9024 23.6551 39.826 23.706C37.8382 24.6745 34.1173 24.8019 32.5118 22.126C31.5433 20.393 31.6962 17.8445 32.8686 16.3409C34.1173 14.7608 36.1816 14.1237 38.1695 14.7608C39.6731 15.245 40.5141 16.4173 40.9218 17.9209C41.0493 18.6345 41.0493 19.2462 41.2022 20.0617ZM38.6537 18.8384C38.7811 17.7935 37.7617 16.6976 36.6658 16.6976C35.3661 16.6212 34.4486 17.4622 34.4486 18.8384C35.8248 18.8384 37.2775 18.8384 38.6537 18.8384Z" fill="#42175B"/>
<path d="M70.4067 24.2158C70.3303 23.859 70.3303 23.6041 70.3303 23.2473C69.9735 23.4512 69.6422 23.6041 69.3618 23.7316C68.5463 24.1393 67.6288 24.4961 66.6859 24.2922C65.3862 24.0119 64.5451 23.2473 64.4942 21.8711C64.4177 19.6539 64.4942 17.4622 64.4942 15.1941C65.2587 15.1941 65.9978 15.1941 66.9153 15.1941C66.9153 15.3979 66.9153 15.6018 66.9153 15.8822C66.9153 17.3858 66.9153 18.8384 66.9153 20.3675C66.9153 21.6673 67.6798 22.3044 68.9796 22.0241C70.0754 21.8202 70.4322 21.336 70.4322 20.1637C70.4322 18.5071 70.4322 16.927 70.4322 15.1941C71.2477 15.1941 72.0123 15.1941 72.8533 15.1941C72.8533 15.3979 72.9297 15.6783 72.9297 15.8822C72.9297 18.4307 72.9297 20.9792 72.9297 23.4512C72.9297 24.0119 72.8023 24.2158 72.1652 24.2158C71.5026 24.1393 70.9419 24.2158 70.4067 24.2158Z" fill="#42175B"/>
<path d="M74.6116 23.7824C74.6116 22.8904 74.6116 22.2023 74.6116 21.6417C75.7074 21.8455 76.8288 22.0494 77.9246 22.2023C78.205 22.2788 78.5363 22.2023 78.7402 22.0749C79.0205 21.871 79.4283 21.5142 79.5047 21.2594C79.5047 20.979 79.1479 20.4948 78.8166 20.4439C78.1285 20.24 77.364 20.1635 76.6759 20.0361C74.739 19.6283 74.0509 17.2837 75.3761 15.8311C76.1407 14.9391 77.1091 14.5823 78.2814 14.5823C79.0969 14.5823 79.938 14.7097 80.7535 14.8626C80.8809 14.8626 81.0848 15.143 81.0848 15.2704C81.1612 15.882 81.0848 16.4427 81.0848 17.0543C80.1928 16.9269 79.3008 16.774 78.4088 16.6466C78.1285 16.6466 77.8482 16.6466 77.6443 16.774C77.364 16.9014 77.0327 17.2582 77.0836 17.4621C77.0836 17.666 77.4404 18.0737 77.6953 18.1502C78.2559 18.3541 78.8676 18.3541 79.4792 18.507C80.6515 18.7109 81.4671 19.2715 81.8238 20.4439C82.1806 21.6162 81.62 22.9159 80.6515 23.6805C79.6831 24.445 78.5108 24.496 77.3385 24.3686C76.3955 24.2157 75.5035 23.9353 74.6116 23.7824Z" fill="#42175B"/>
<path d="M25.1448 15.1176C25.9603 15.0412 26.8013 14.9902 27.6168 14.9137C27.6168 15.1941 27.6933 15.398 27.6933 15.7293C28.0501 15.5254 28.3049 15.4489 28.5088 15.2451C29.2734 14.7608 30.0124 14.6334 30.9299 14.7608C31.1338 14.7608 31.3377 15.0412 31.3377 15.2451C31.4141 16.0096 31.3377 16.7487 31.3377 17.3858C30.5221 17.3093 29.6811 17.1819 28.8656 17.3093C27.8207 17.4368 27.5659 17.87 27.5659 18.8894C27.5659 20.6224 27.5659 22.2535 27.5659 24.1139C26.8013 24.1139 26.1132 24.1139 25.4251 24.1139C25.2977 24.1139 25.0683 23.7061 25.0683 23.5532C25.0683 21.1321 25.0683 18.7875 25.0683 16.3919C25.1448 16.0096 25.1448 15.6018 25.1448 15.1176Z" fill="#42175B"/>
</svg>
