<svg width="104" height="26" viewBox="0 0 104 26" fill="none" xmlns="http://www.w3.org/2000/svg">
<path d="M58.7485 8.47485C58.7485 5.44064 58.8008 2.61569 58.9577 0L50.9537 1.5171V2.2495L51.7384 2.35412C52.3139 2.40644 52.6801 2.61569 52.8893 2.92958C53.0986 3.29577 53.2555 3.81891 53.3602 4.60362C53.4648 6.12072 53.5694 9.57344 53.5171 15.0141C53.5171 20.4024 53.4648 23.8028 53.3602 25.1107C56.2374 25.7384 58.4869 26 60.161 26C63.2998 26 65.7585 25.1107 67.5372 23.2797C69.3159 21.501 70.2575 18.9899 70.2575 15.9034C70.2575 13.4447 69.5775 11.4044 68.2173 9.7827C66.8571 8.16097 65.1308 7.37626 63.0905 7.37626C61.7304 7.37626 60.3179 7.74246 58.7485 8.47485ZM58.9054 24.5875C58.8008 22.9135 58.6962 17.8913 58.6962 9.67807C59.167 9.52113 59.7948 9.4165 60.5795 9.4165C61.835 9.4165 62.829 10.0443 63.5614 11.3521C64.2938 12.66 64.66 14.2294 64.66 16.2173C64.66 18.6761 64.2414 20.664 63.4044 22.338C62.5674 23.9598 61.5211 24.7968 60.2133 24.7968C59.7948 24.6922 59.3762 24.6398 58.9054 24.5875ZM20.9256 0.523139H0V1.56942L1.09859 1.67404C1.93561 1.83099 2.51107 2.14487 2.87726 2.61569C3.24346 3.13883 3.45272 3.97586 3.50503 5.12676C3.92354 10.7767 3.92354 16.0604 3.50503 20.9256C3.4004 22.0765 3.19115 22.9135 2.87726 23.4366C2.51107 23.9598 1.93561 24.2736 1.09859 24.3783L0 24.5352V25.5815H13.497V24.5352L12.0845 24.4306C11.2475 24.326 10.672 23.9598 10.3058 23.4889C9.93964 22.9658 9.73038 22.1288 9.67807 20.9779C9.52113 18.8853 9.4165 16.4789 9.4165 13.8109L12.2414 13.8632C13.7585 13.9155 14.8048 15.0664 15.328 17.3682H16.3742V8.84105H15.328C14.8048 11.0905 13.8109 12.2414 12.2414 12.2938L9.4165 12.3461C9.4165 7.63783 9.52113 4.28974 9.67807 2.2495H13.8109C16.7404 2.2495 18.7284 4.1328 19.8793 7.8994L21.1348 7.5332L20.9256 0.523139ZM18.4668 16.6358C18.4668 19.3561 19.2515 21.6056 20.7686 23.3843C22.2857 25.163 24.5352 26 27.3602 26C30.1851 26 32.4869 25.1107 34.161 23.2797C35.835 21.501 36.6197 19.2515 36.6197 16.5312C36.6197 13.8109 35.835 11.5614 34.3179 9.7827C32.8008 8.00402 30.5513 7.167 27.7264 7.167C24.9014 7.167 22.5996 8.05634 20.9256 9.88732C19.2515 11.666 18.4668 13.9155 18.4668 16.6358ZM30.1328 10.672C30.7606 12.1891 31.0221 14.1771 31.0221 16.5835C31.0221 22.1288 29.8712 24.8491 27.6217 24.8491C26.4708 24.8491 25.5815 24.0644 24.9537 22.495C24.326 20.9256 24.0644 18.9376 24.0644 16.5835C24.0644 11.0905 25.2153 8.37022 27.4648 8.37022C28.6157 8.31791 29.505 9.10262 30.1328 10.672ZM74.338 23.3843C76.0644 25.1107 78.2616 26 80.8773 26C82.499 26 83.9115 25.6861 85.167 25.006C86.4225 24.3783 87.4165 23.5936 88.0966 22.6519L87.5734 22.0241C86.4225 22.9135 85.1147 23.332 83.5976 23.332C81.505 23.332 79.8833 22.6519 78.7847 21.2394C77.6338 19.827 77.1107 18.0483 77.2153 15.7465H88.4105C88.4105 13.2354 87.7827 11.1952 86.4748 9.57344C85.167 8.00402 83.336 7.21932 80.9819 7.21932C78.0523 7.21932 75.8028 8.16097 74.1811 9.99195C72.5593 11.8229 71.7746 14.0724 71.7746 16.7404C71.7746 19.4608 72.6117 21.6579 74.338 23.3843ZM78.2092 10.2535C78.7847 8.99799 79.5171 8.37022 80.5111 8.37022C82.0805 8.37022 82.8652 10.3581 82.8652 14.3863L77.3199 14.4909C77.3722 12.9215 77.6338 11.5091 78.2092 10.2535ZM102.483 8.16097C101.07 7.5332 99.2917 7.167 97.1469 7.167C94.9497 7.167 93.2233 7.74245 91.9155 8.84105C90.6076 9.93964 89.9276 11.2998 89.9276 12.9215C89.9276 14.334 90.3461 15.4326 91.1308 16.2173C91.9155 17.002 93.171 17.6821 94.7927 18.2575C96.2575 18.7807 97.3038 19.3038 97.827 19.7746C98.3501 20.2978 98.664 20.8732 98.664 21.6579C98.664 22.3903 98.4024 23.0704 97.827 23.5936C97.3038 24.169 96.5714 24.4306 95.6298 24.4306C93.328 24.4306 91.6016 22.7565 90.3984 19.4084L89.509 19.67L89.7183 24.9014C91.6016 25.6338 93.6942 26 95.996 26C98.4024 26 100.233 25.4769 101.594 24.3783C102.954 23.332 103.634 21.8149 103.634 19.9316C103.634 18.6761 103.32 17.6298 102.64 16.8451C101.96 16.0604 100.861 15.3803 99.2917 14.7525C97.5654 14.1247 96.3622 13.5493 95.7344 13.0262C95.1066 12.503 94.7927 11.8753 94.7927 11.0905C94.7927 10.3058 95.002 9.67807 95.4728 9.15493C95.9436 8.63179 96.5191 8.42253 97.2515 8.42253C99.344 8.42253 100.861 9.93964 101.803 12.9215L102.692 12.66L102.483 8.16097ZM52.1569 7.69014C51.4245 7.32394 50.6398 7.167 49.7505 7.167C48.8612 7.167 47.9718 7.5332 46.9779 8.26559C45.9839 8.99799 45.2515 9.99195 44.6761 11.3521L44.7284 7.167L36.7767 8.73642V9.46881L37.5614 9.52113C38.5553 9.62575 39.1308 10.4105 39.2354 11.8229C39.5493 15.0664 39.5493 18.5191 39.2354 22.1811C39.1308 23.5936 38.5553 24.326 37.5614 24.4829L36.7767 24.5875V25.5815H47.8672V24.5875L46.4547 24.4829C45.4608 24.3783 44.8853 23.5936 44.7807 22.1811C44.4668 19.1469 44.4145 15.9034 44.6761 12.5553C44.9899 12.0322 45.67 11.7183 46.7163 11.6137C47.7626 11.5091 48.9658 11.8229 50.2213 12.5553L52.1569 7.69014Z" fill="black"/>
</svg>
