<svg width="107" height="36" viewBox="0 0 107 36" fill="none" xmlns="http://www.w3.org/2000/svg">
<path d="M23.2298 12.1458V23.9337H19.1184V22.4721C18.2796 23.6287 17.0722 24.2896 15.3501 24.2896C12.5922 24.2896 10.9908 22.6818 10.9908 19.7333V12.1458H15.1022V18.8754C15.1022 20.4323 15.7441 21.0677 17.0277 21.0677C18.3812 21.0677 19.1247 20.3179 19.1247 18.7547V12.1458H23.2298ZM38.5191 18.0302C38.5191 19.3965 38.2713 20.5085 37.8519 21.43C36.9877 23.2029 35.3355 24.2641 33.0732 24.2641C31.4718 24.2641 30.239 23.7431 29.3748 22.631V28.6997H25.2633V12.1458H29.2858V13.5629C30.1755 12.3555 31.4273 11.79 33.0796 11.79C35.3482 11.79 36.994 12.8575 37.8583 14.6495C38.2713 15.571 38.5191 16.683 38.5191 18.0302ZM34.1408 18.0302C34.1408 17.2041 34.0391 16.6131 33.8421 16.1874C33.4735 15.4058 32.7364 15.0054 31.726 15.0054C30.1755 15.0054 29.3367 15.9459 29.3367 17.6934V18.3289C29.3367 20.0764 30.1755 21.0169 31.726 21.0169C32.7364 21.0169 33.4735 20.6166 33.8421 19.8349C34.0391 19.4219 34.1408 18.85 34.1408 18.0302ZM59.229 12.1458H63.3214V13.207C63.9632 12.2157 64.6495 11.8154 65.6408 11.8154C67.1151 11.8154 68.0556 12.7368 68.0556 14.103C68.0556 15.4248 67.096 16.3971 65.6916 16.3971C64.8274 16.3971 64.0903 15.965 63.7662 15.3295C63.423 15.4693 63.3468 15.6599 63.3468 16.486V23.921H59.2353L59.229 12.1458ZM81.0699 17.1533V23.9337H76.9584V22.542C76.145 23.6287 74.8868 24.2641 72.8915 24.2641C70.9469 24.2641 69.4917 23.6033 68.8817 22.2815C68.6338 21.8112 68.5385 21.2647 68.5385 20.6039C68.5385 19.9684 68.6338 19.4473 68.8308 18.9961C69.7205 17.1533 72.1035 16.7275 75.1092 16.7275H76.9584V16.5369C76.9584 15.8315 76.914 15.571 76.7614 15.2596C76.52 14.7449 75.9481 14.478 75.0648 14.478C74.1052 14.478 73.5651 14.7194 73.3172 15.2342C73.2219 15.4693 73.1965 15.6345 73.1711 15.9459H68.9834C69.0088 15.3041 69.1359 14.7639 69.3519 14.2937C70.1653 12.5652 72.2623 11.79 75.0203 11.79C77.9942 11.79 79.7481 12.5398 80.5615 14.2429C80.8983 15.0308 81.0699 15.9967 81.0699 17.1533ZM76.736 20.3878C76.9076 20.0574 76.9584 19.7269 76.9584 19.0914V18.9262H75.3825C74.2005 18.9262 73.241 19.047 72.9741 19.6634C72.8978 19.8032 72.8533 19.9684 72.8533 20.1781C72.8533 20.3878 72.8788 20.5594 72.9741 20.7437C73.2219 21.2647 73.8637 21.449 74.6072 21.449C75.7002 21.449 76.4119 21.0741 76.736 20.3878ZM96.0097 7.26544V23.9337H91.9999V22.5166C91.1103 23.6986 89.8774 24.2641 88.2062 24.2641C85.9376 24.2641 84.2917 23.222 83.4275 21.43C83.0081 20.5085 82.7602 19.3965 82.7602 18.0302C82.7602 16.6894 83.0081 15.5773 83.4275 14.6559C84.2599 12.8639 85.9376 11.7963 88.2062 11.7963C89.8075 11.7963 91.0149 12.3174 91.8982 13.4231V7.26544H96.0097ZM91.9427 17.6998C91.9427 15.9523 91.1039 15.0118 89.5534 15.0118C88.543 15.0118 87.8058 15.4121 87.4373 16.1937C87.2403 16.6195 87.1386 17.2105 87.1386 18.0366C87.1386 18.8881 87.2403 19.4537 87.4373 19.9048C87.8058 20.6801 88.543 21.0868 89.5534 21.0868C91.1039 21.0868 91.9427 20.14 91.9427 18.3988V17.6998ZM49.9385 15.0626V18.1001H52.5947L52.4994 18.5005C52.1689 19.8222 50.5231 20.7055 49.1886 20.7055C47.3394 20.7055 44.9437 19.854 44.9437 15.7807C44.9437 12.4064 46.4815 10.7986 48.8455 10.7986C50.1354 10.7986 51.1268 11.0909 51.7241 11.9488C51.9719 12.3301 52.2007 12.8448 52.2325 13.2769H56.9413C56.9413 13.2769 57.0557 11.1799 55.2764 9.36248C55.2446 9.3307 55.2192 9.30528 55.1938 9.27987C53.7576 7.79288 51.6034 6.96677 48.9408 6.96677C43.5012 6.96677 39.9871 10.4364 39.9871 15.8061C39.9871 22.0146 44.4353 24.2197 48.2481 24.2197C50.3896 24.2197 52.3087 23.6033 53.4843 22.4022L53.5415 23.9337H57.2272V15.0626H49.9385Z" fill="#42175B"/>
</svg>
