<svg width="107" height="36" viewBox="0 0 107 36" fill="none" xmlns="http://www.w3.org/2000/svg">
<path d="M73.9539 11.4603C73.3341 11.2447 72.822 11.0561 72.822 10.6518C72.822 10.1937 73.1454 9.97806 73.8192 9.97806C74.3582 9.97806 75.0319 10.1667 75.5978 10.4901H75.6248L75.9482 9.49296C75.3822 9.11567 74.4121 8.84617 73.4958 8.84617C71.9327 8.84617 70.9894 9.57381 70.9894 10.8135C70.9894 12.1071 72.0674 12.4844 72.9568 12.8617C73.6036 13.1312 74.2504 13.4546 74.2504 13.9397C74.2504 14.4517 73.8731 14.6404 73.1454 14.6404C72.4986 14.6404 71.771 14.4248 71.205 14.0744H71.1781L70.8277 15.0985C71.3937 15.5028 72.4447 15.7992 73.361 15.7992C74.2234 15.7992 74.8971 15.6106 75.3553 15.2063C75.8134 14.829 76.029 14.2631 76.029 13.5624C76.029 12.2418 74.8702 11.8106 73.9539 11.4603Z" fill="#42175B"/>
<path d="M69.9133 13.4546V11.7837C69.9133 10.7866 69.6708 10.0589 69.1857 9.57383C68.6467 9.03484 68.0538 8.79229 67.1914 8.79229C66.302 8.79229 65.251 9.11568 64.5503 9.60078L64.8467 10.5979H64.8737C65.4396 10.2476 66.0864 10.032 66.6793 10.032C67.1914 10.032 67.6226 10.1667 67.8382 10.4093C68.0807 10.6788 68.1885 10.9213 68.1885 11.5951C67.7843 11.4064 67.2722 11.4334 66.7871 11.4334C66.7063 11.4334 66.6524 11.4334 66.5715 11.4334C65.0354 11.4334 64.0652 12.2688 64.0652 13.6432C64.0652 14.29 64.2808 14.829 64.6851 15.2063C65.0893 15.5836 65.6822 15.7992 66.3829 15.7992C67.0027 15.7992 67.7573 15.5567 68.3502 15.1524C68.3772 15.3411 68.4311 15.4758 68.485 15.6375H70.0211V15.6106C69.9403 14.9099 69.9133 14.4517 69.9133 13.4546ZM68.1885 12.5922V14.1822C67.7304 14.4517 67.2722 14.7212 66.9488 14.7212C66.2751 14.7212 65.8978 14.3439 65.8978 13.6432C65.8978 12.8887 66.302 12.4575 67.0297 12.4575C67.0836 12.4575 67.1375 12.4575 67.1644 12.4575C67.2183 12.4575 67.2722 12.4575 67.3531 12.4575C67.5687 12.4575 67.8921 12.4575 68.1885 12.5922Z" fill="#42175B"/>
<path d="M30.9709 7.49851H33.5851V15.6373H35.5524V7.49851H38.1665V6.09712H30.9709V7.49851Z" fill="#42175B"/>
<path d="M40.8077 15.6373V10.5438C41.185 10.2743 41.67 10.1126 42.0743 10.1126C42.8019 10.1126 43.1523 10.5977 43.1523 11.6218V15.6373H44.9849V11.6488C44.9849 10.7055 44.7693 10.0048 44.3111 9.51974C43.8799 9.0616 43.4218 8.87295 42.748 8.87295C42.0743 8.87295 41.3736 9.0616 40.8077 9.41195V6.09712H38.9751V15.6104L40.8077 15.6373Z" fill="#42175B"/>
<path d="M61.3714 15.6375H63.204V11.6489C63.204 10.6249 63.0154 9.95111 62.5842 9.49296C62.1799 9.06177 61.6948 8.84617 61.0481 8.84617C60.2935 8.84617 59.485 9.14261 58.7843 9.68161C58.7573 9.65466 58.7304 9.60076 58.7034 9.57381C58.6765 9.54686 58.6765 9.54686 58.6495 9.51991C58.2453 9.08871 57.7332 8.87312 57.1134 8.87312C56.4127 8.87312 55.685 9.11567 55.0652 9.57381C55.0113 9.41211 54.9844 9.33126 54.9574 9.25041C54.9305 9.19651 54.9305 9.11566 54.9035 9.06176H53.4213V15.6106H55.2538V11.9993C55.2538 11.7028 55.2538 11.4064 55.2538 11.1369C55.2538 10.9213 55.2538 10.7057 55.2538 10.5171C55.712 10.1667 56.1701 10.0859 56.4666 10.0859C56.7361 10.0859 56.9517 10.1667 57.1134 10.3284C57.329 10.5979 57.4368 10.9483 57.4368 11.595V15.6106H59.2694V11.622C59.2694 11.4064 59.2694 11.2177 59.2694 11.0021C59.2694 10.8135 59.2694 10.6249 59.2694 10.4632C59.7275 10.1128 60.1318 10.0589 60.4282 10.0589C60.6977 10.0589 60.9133 10.1398 61.075 10.3015C61.2906 10.571 61.3984 10.9213 61.3984 11.5681L61.3714 15.6375Z" fill="#42175B"/>
<path d="M49.1628 15.7992C50.2139 15.7992 51.0763 15.4758 51.6691 14.8829C52.262 14.29 52.5585 13.4276 52.5585 12.4035C52.5585 11.3525 52.262 10.4901 51.6691 9.84331C51.0763 9.19652 50.2139 8.84617 49.1628 8.84617C47.0877 8.84617 45.821 10.1398 45.821 12.3227C45.848 14.4787 47.0877 15.7992 49.1628 15.7992ZM49.1628 9.92416C50.1061 9.92416 50.5912 10.7327 50.5912 12.3227C50.5912 13.9127 50.1061 14.7212 49.1628 14.7212C48.2196 14.7212 47.7345 13.9127 47.7345 12.3227C47.7345 10.7327 48.2196 9.92416 49.1628 9.92416Z" fill="#42175B"/>
<path d="M45.4189 27.8178C44.6912 28.1142 43.748 28.249 43.209 28.249C42.4544 28.249 41.9154 28.0603 41.5112 27.71C40.8374 27.0901 40.541 26.1469 40.541 24.7455C40.541 23.0746 41.0261 22.2122 41.4573 21.781C41.8346 21.4037 42.3736 21.2151 43.0473 21.2151C43.6671 21.2151 44.6104 21.3768 45.365 21.7541H45.3919L45.7423 20.6222C44.8799 20.1102 43.721 19.9215 42.9125 19.9215C41.619 19.9215 40.5949 20.2988 39.8403 21.0803C38.9779 21.9697 38.5197 23.2363 38.5197 24.7455C38.5197 26.4164 39.0048 27.7369 39.9211 28.5454C40.6488 29.2192 41.6729 29.5426 42.9395 29.5426C43.748 29.5426 44.8799 29.3809 45.7423 28.9766L45.4189 27.8178Z" fill="#42175B"/>
<path d="M49.4598 22.6165C47.3847 22.6165 46.1181 23.9101 46.1181 26.0931C46.1181 28.276 47.3577 29.5696 49.4598 29.5696C51.535 29.5696 52.8016 28.276 52.8016 26.0931C52.8016 23.9101 51.5619 22.6165 49.4598 22.6165ZM49.4598 28.4646C48.5166 28.4646 48.0315 27.6562 48.0315 26.0661C48.0315 24.4761 48.5166 23.6676 49.4598 23.6676C50.4031 23.6676 50.8882 24.4761 50.8882 26.0661C50.9151 27.6562 50.43 28.4646 49.4598 28.4646Z" fill="#42175B"/>
<path d="M67.1144 22.7785H65.2009L62.7485 25.204V19.841H60.9159V29.3812H62.7485V26.5245L65.0392 29.3543V29.3812H67.1683L64.1499 25.6621L67.1144 22.7785Z" fill="#42175B"/>
<path d="M56.7377 22.6165C54.6626 22.6165 53.396 23.9101 53.396 26.0931C53.396 28.276 54.6357 29.5696 56.7377 29.5696C58.8129 29.5696 60.0526 28.276 60.0526 26.0931C60.0526 23.9101 58.8129 22.6165 56.7377 22.6165ZM56.7377 28.4646C55.7945 28.4646 55.3094 27.6562 55.3094 26.0661C55.3094 24.4761 55.7945 23.6676 56.7377 23.6676C57.681 23.6676 58.1661 24.4761 58.1661 26.0661C58.1661 27.6562 57.681 28.4646 56.7377 28.4646Z" fill="#42175B"/>
</svg>
