<svg width="56" height="56" viewBox="0 0 56 56" fill="none" xmlns="http://www.w3.org/2000/svg">
<g clip-path="url(#clip0_1_1871)">
<path d="M31.2183 55.3416H52.6195C54.4864 55.3416 55.9998 53.8298 55.9998 51.9651V13.8841C55.9998 12.0192 54.4864 10.5076 52.6196 10.5076H24.957L31.2183 55.3416Z" fill="#F5F5F5"/>
<path d="M52.6185 10.5076H49.2383C51.1052 10.5076 52.6185 12.0193 52.6185 13.8841V51.9651C52.6185 53.8299 51.1051 55.3416 49.2383 55.3416H52.6185C54.4853 55.3417 55.9987 53.8299 55.9987 51.9652V13.8842C55.9987 12.0193 54.4853 10.5076 52.6185 10.5076Z" fill="#EEEEEE"/>
<path d="M50.0491 26.839H52.3961C52.5206 26.839 52.6214 26.7382 52.6214 26.6137V23.6841C52.6214 23.5596 52.5206 23.4588 52.3961 23.4588H44.687C44.5625 23.4588 44.4617 23.3579 44.4617 23.2335V21.1235C44.4617 20.999 44.3609 20.8982 44.2364 20.8982H41.3068C41.1823 20.8982 41.0815 20.999 41.0815 21.1235V23.2335C41.0815 23.3579 40.9806 23.4588 40.8562 23.4588H33.1472C33.0227 23.4588 32.9219 23.5596 32.9219 23.6841V26.6137C32.9219 26.7382 33.0227 26.839 33.1472 26.839H45.8313C45.9991 26.839 46.1088 27.0156 46.033 27.1653C45.3706 28.4729 44.3695 30.1524 42.944 31.8595C42.8543 31.9669 42.687 31.9669 42.5973 31.8595C41.7261 30.8162 41.0137 29.7837 40.4413 28.8412C40.377 28.7352 40.2399 28.7007 40.1334 28.7641L37.6158 30.2621C37.5084 30.326 37.4725 30.4648 37.5373 30.5716C38.2409 31.7329 39.1322 33.0152 40.2387 34.3055C40.3199 34.4001 40.311 34.5429 40.2162 34.6238C38.6221 35.9844 36.701 37.2336 34.4027 38.1723C34.2882 38.219 34.2319 38.3485 34.2774 38.4635L35.3569 41.1869C35.403 41.3033 35.5357 41.3607 35.6517 41.3135C38.1865 40.2811 40.5322 38.8269 42.6199 37.0088C42.7048 36.9349 42.8298 36.9346 42.9146 37.0086C44.8024 38.6566 47.1044 40.1791 49.8916 41.3134C50.0076 41.3605 50.1403 41.3034 50.1865 41.187L51.2661 38.4634C51.3117 38.3484 51.2553 38.219 51.1408 38.1722C48.841 37.2328 46.9198 35.9831 45.3258 34.623C45.2309 34.5422 45.2216 34.4 45.3029 34.3055C45.9704 33.5291 46.6 32.7086 47.1875 31.8456C48.5192 29.8896 49.3644 28.1222 49.8411 26.978C49.8761 26.894 49.9579 26.839 50.0491 26.839Z" fill="#607D8B"/>
<path d="M40.1601 44.2831L25.5073 1.2393C25.3886 0.890506 25.0608 0.656006 24.692 0.656006H3.38023C1.51342 0.656006 0 2.16779 0 4.03252V40.9066C0 42.7714 1.51342 44.2831 3.38023 44.2831H40.1601Z" fill="#2196F3"/>
<path d="M40.1592 44.281L31.2175 55.3414L26.4062 44.281H40.1592Z" fill="#1565C0"/>
<path d="M25.053 21.5219C25.1361 21.5219 25.2034 21.5893 25.2034 21.6723V23.2519C25.2034 23.8431 25.1485 24.4211 25.0431 24.9819C24.2284 29.3375 20.3911 32.6291 15.7917 32.5974C10.6307 32.5619 6.50037 28.3919 6.51174 23.2308C6.52312 18.079 10.7031 13.906 15.8576 13.906C18.383 13.906 20.6742 14.9079 22.3565 16.5352C22.4172 16.5939 22.4188 16.6907 22.359 16.7504L20.1243 18.9851C20.0668 19.0426 19.9738 19.0441 19.9149 18.988C18.8591 17.983 17.4305 17.366 15.8576 17.366C12.6095 17.366 9.99391 19.963 9.97193 23.211C9.94973 26.4803 12.5934 29.1376 15.8576 29.1376C18.506 29.1376 20.746 27.388 21.4846 24.9818H16.008C15.9249 24.9818 15.8576 24.9144 15.8576 24.8314V21.6724C15.8576 21.5893 15.925 21.522 16.008 21.522L25.053 21.5219Z" fill="#F5F5F5"/>
</g>
<defs>
<clipPath id="clip0_1_1871">
<rect width="56" height="56" fill="white"/>
</clipPath>
</defs>
</svg>
