<svg width="48" height="48" viewBox="0 0 48 48" fill="none" xmlns="http://www.w3.org/2000/svg">
<g clip-path="url(#clip0_1_1654)">
<path d="M4.37262 25.9073C2.95034 25.9073 1.57134 25.4491 0.673653 24.9887L-0.00390625 27.7459C0.827372 28.2056 2.49142 28.6429 4.17637 28.6429C8.22531 28.6429 10.1289 26.5423 10.1289 24.0693C10.1289 21.9904 8.90286 20.6338 6.29934 19.6704C4.39501 18.9473 3.56373 18.5325 3.56373 17.5915C3.56373 16.8251 4.26367 16.1685 5.70834 16.1685C7.153 16.1685 8.20366 16.5848 8.79392 16.8691L9.53864 14.1776C8.66259 13.7836 7.43731 13.4336 5.774 13.4336C2.29442 13.4336 0.193093 15.3588 0.193093 17.8758C0.193093 20.0204 1.79073 21.377 4.24203 22.2307C6.01428 22.8657 6.71497 23.391 6.71497 24.3089C6.71497 25.273 5.90459 25.9073 4.37262 25.9073Z" fill="black"/>
<path d="M21.7933 25.6866H15.7318V22.1854H21.1583V19.4714H15.7318V16.4075H21.4873V13.6719H12.3828V28.4222H21.7933V25.6866Z" fill="black"/>
<path d="M33.0749 29.5426C35.1456 29.5426 37.0432 28.7971 38.5207 27.5629L41.4586 30.3045C41.4541 30.6104 41.5653 30.9134 41.8055 31.138L46.1164 35.1631C46.3321 35.3646 46.6052 35.4638 46.879 35.4638C47.1783 35.4638 47.4775 35.3444 47.6976 35.1071C48.1192 34.6564 48.0946 33.946 47.6439 33.5251L43.333 29.5008C43.0928 29.2762 42.7808 29.1874 42.4779 29.212L39.5788 26.507C40.8258 25.0273 41.5817 23.1185 41.5817 21.0358C41.5817 16.3459 37.767 12.5312 33.0771 12.5312C28.3872 12.5312 24.5703 16.3474 24.5703 21.0366C24.5696 25.728 28.3849 29.5426 33.0749 29.5426ZM33.0749 14.7706C36.5306 14.7706 39.3416 17.5816 39.3416 21.0366C39.3416 24.4915 36.5291 27.3032 33.0749 27.3032C29.6207 27.3032 26.8082 24.4915 26.8082 21.0366C26.8082 17.5816 29.6192 14.7706 33.0749 14.7706Z" fill="black"/>
</g>
<defs>
<clipPath id="clip0_1_1654">
<rect width="48" height="48" fill="white"/>
</clipPath>
</defs>
</svg>
