<svg width="48" height="37" viewBox="0 0 48 37" fill="none" xmlns="http://www.w3.org/2000/svg">
<path d="M0.00788159 22.0314C0.00788159 12.6117 6.61783 4.17159 16.2367 0C16.2367 0 16.706 2.83301 17.647 4.27924C10.3157 8.76303 9.85283 15.7767 9.82054 18.0482C10.6549 17.9298 11.5376 17.9136 12.3988 17.9944C17.2594 18.4465 21.0865 22.4351 21.0865 27.3872C21.0865 32.5868 16.8665 36.8069 11.6668 36.8069C8.7763 36.8069 6.01497 35.4881 4.27098 33.6365C1.49889 30.6921 0.00788159 27.3872 0.00788159 22.0314Z" fill="white"/>
<path d="M26.9214 22.0314C26.9214 12.6117 33.5313 4.17159 43.1502 0L45.5563 3.7033C36.5779 8.56387 36.734 16.3634 36.734 18.0482C37.5683 17.9298 38.4511 17.9136 39.3123 17.9944C44.1729 18.4465 48 22.4351 48 27.3872C48 32.5868 43.78 36.8069 38.5803 36.8069C35.6898 36.8069 32.9285 35.4881 31.1845 33.6365C28.4124 30.6921 26.9214 27.3872 26.9214 22.0314Z" fill="white"/>
</svg>
