<svg width="25" height="25" viewBox="0 0 25 25" fill="none" xmlns="http://www.w3.org/2000/svg">
<path d="M12.4995 25.0001C10.8215 25.0001 9.23818 24.3053 8.10697 23.1043C6.46329 23.1491 4.84773 22.5262 3.66027 21.3398C2.47386 20.1523 1.8468 18.542 1.89472 16.8931C0.694765 15.7619 0 14.1797 0 12.5006C0 10.8215 0.694765 9.24026 1.89472 8.10802C1.8468 6.45912 2.47386 4.84877 3.66027 3.66132C4.84877 2.47386 6.45808 1.83639 8.10697 1.89576C9.23818 0.694765 10.8204 0 12.4995 0C14.1786 0 15.7608 0.694765 16.892 1.89576C18.5284 1.83639 20.1503 2.47386 21.3388 3.66027C22.5252 4.84773 23.1522 6.45808 23.1043 8.10698C24.3043 9.23818 24.999 10.8204 24.999 12.4995C24.999 14.1786 24.3043 15.7598 23.1043 16.892C23.1522 18.5409 22.5252 20.1513 21.3388 21.3388C20.1503 22.5262 18.5305 23.1491 16.892 23.1043C15.7608 24.3053 14.1786 25.0001 12.4995 25.0001ZM9.50484 19.7305L10.084 20.5888C10.6267 21.394 11.5308 21.8752 12.4995 21.8752C13.4682 21.8752 14.3724 21.394 14.915 20.5888L15.4942 19.7305L16.5098 19.9284C17.4681 20.1138 18.4441 19.8159 19.1295 19.1295C19.8138 18.4441 20.1128 17.4649 19.9284 16.5098L19.7326 15.4952L20.5888 14.9171C21.394 14.3744 21.8752 13.4703 21.8752 12.5006C21.8752 11.5308 21.394 10.6277 20.5888 10.084L19.7326 9.50588L19.9284 8.49134C20.1138 7.53617 19.8149 6.55704 19.1295 5.87165C18.4441 5.18626 17.4681 4.88835 16.5098 5.07272L15.4942 5.27063L14.915 4.41233C14.3724 3.60715 13.4682 3.12592 12.4995 3.12592C11.5308 3.12592 10.6267 3.60715 10.084 4.41233L9.50484 5.27063L8.48925 5.07272C7.532 4.88731 6.55599 5.18626 5.86956 5.87165C5.18521 6.55704 4.88627 7.53617 5.07064 8.49134L5.26646 9.50588L4.41024 10.084C3.60507 10.6267 3.12384 11.5308 3.12384 12.5006C3.12384 13.4703 3.60507 14.3734 4.41024 14.9171L5.26646 15.4952L5.07064 16.5098C4.88523 17.4649 5.18417 18.4441 5.86956 19.1295C6.55599 19.8149 7.532 20.1138 8.48925 19.9284L9.50484 19.7305ZM10.9402 16.6671C10.2725 16.6671 9.60483 16.4129 9.09548 15.9046L6.20392 13.1026L8.37884 10.859L10.9339 13.3359L16.091 8.26322L18.2826 10.4913L12.7693 15.915C12.2683 16.4171 11.6048 16.6691 10.9402 16.6691V16.6671Z" fill="#FBBA18"/>
</svg>
