<svg width="107" height="36" viewBox="0 0 107 36" fill="none" xmlns="http://www.w3.org/2000/svg">
<path d="M41.318 26.2772H45.3662L48.5399 14.4889H44.4918L41.318 26.2772Z" fill="#42175B"/>
<path d="M62.0771 26.2772H66.1253L69.299 14.4889H65.2509L62.0771 26.2772Z" fill="#42175B"/>
<path d="M82.8363 26.2772H86.8845L90.0583 14.4889H86.0101L82.8363 26.2772Z" fill="#42175B"/>
<path d="M58.3189 18.5047H62.3671C62.9176 15.8491 61.2012 14.4889 57.2178 14.4889C52.6191 14.4889 49.5101 16.7235 48.4737 20.6421C47.5345 24.1721 49.4129 26.3096 53.7202 26.3096C58.0922 26.3096 60.6507 24.9494 61.7518 21.9051H57.7036C57.153 23.2329 56.0843 23.9454 54.627 23.9454C52.6838 23.9454 51.9066 22.7148 52.4895 20.4478C53.1048 18.116 54.5946 16.8206 56.5701 16.8206C57.8331 16.853 58.4161 17.4036 58.3189 18.5047Z" fill="#42175B"/>
<path d="M79.0798 18.5047H83.128C83.6785 15.8491 81.9621 14.4889 77.9787 14.4889C73.3799 14.4889 70.2709 16.7235 69.2346 20.6421C68.2954 24.1721 70.1738 26.3096 74.481 26.3096C78.8531 26.3096 81.4115 24.9494 82.5126 21.9051H78.4645C77.9139 23.2329 76.8452 23.9454 75.3878 23.9454C73.4447 23.9454 72.6675 22.7148 73.2504 20.4478C73.8657 18.116 75.3555 16.8206 77.331 16.8206C78.594 16.853 79.1769 17.4036 79.0798 18.5047Z" fill="#42175B"/>
<path d="M23.1173 11.153C28.5257 5.80941 35.0676 4.41683 37.6908 8.07639C40.314 11.7359 38.0146 19.0874 32.6063 24.4634C27.1979 29.807 20.656 31.1996 18.0328 27.5401C15.4096 23.8805 17.6766 16.529 23.1173 11.153Z" fill="#42175B"/>
<path d="M26.6791 8.30292C26.0961 8.75631 25.4808 9.2421 24.8979 9.82504C20.1372 14.4885 18.1941 20.9009 20.5258 24.107C22.9224 27.3132 28.7841 26.1473 33.6096 21.419C36.2004 18.893 37.9492 15.9459 38.6941 13.2255C38.9208 11.2176 38.6293 9.43641 37.7225 8.07622C35.5851 5.2263 31.1483 5.453 26.6791 8.30292Z" fill="#42175B"/>
<path d="M33.1888 8.14093C33.8041 8.75625 33.4479 10.1488 32.3468 11.2499C31.2456 12.3187 29.8531 12.7073 29.2377 12.092C28.59 11.4766 28.9787 10.0841 30.0474 8.98295C31.1809 7.84946 32.5735 7.5256 33.1888 8.14093ZM29.3673 27.0864C26.8412 28.9972 24.218 29.9363 21.6595 29.5477C22.7283 29.6125 23.6027 28.4142 24.3152 26.8273C25.0276 25.2081 25.481 23.686 25.8049 22.261C26.3231 20.0264 26.3554 18.4071 26.0964 18.0509C25.6753 17.4679 24.6714 17.6299 23.5703 18.2776C23.0521 18.5691 22.3396 18.3747 23.1817 17.3708C24.0237 16.3344 27.3918 13.8732 28.6224 13.4845C29.9502 13.0959 31.4723 13.6141 30.9542 15.0714C30.5656 16.1401 25.902 28.3818 29.3673 27.0864Z" fill="white"/>
</svg>
