<svg width="31" height="42" viewBox="0 0 31 42" fill="none" xmlns="http://www.w3.org/2000/svg">
<path d="M21.1794 5.45526C21.1794 8.46812 18.737 10.9105 15.7241 10.9105C12.7112 10.9105 10.2688 8.46812 10.2688 5.45526C10.2688 2.4424 12.7112 0 15.7241 0C18.737 0 21.1794 2.4424 21.1794 5.45526Z" fill="#085681"/>
<path d="M21.5003 12.4774C21.1645 13.149 20.9385 13.7766 20.7304 14.3546C20.143 15.9861 19.6981 17.2218 17.3286 17.9326V25.9551H19.5749L27.5412 32.4988C28.1464 32.9959 29.0056 33.0388 29.6573 32.6043C30.1747 32.2594 30.4855 31.6786 30.4855 31.0568V30.1215C30.4855 29.0662 30.2726 28.0218 29.8594 27.0508L24.0675 13.4401C23.6397 12.2634 22.5272 10.4236 21.5003 12.4774Z" fill="#085681"/>
<path fill-rule="evenodd" clip-rule="evenodd" d="M15.7241 25.9551L16.6868 26.9178L9.94792 33.9776V35.9029L17.6495 42H6.09711V33.6567L0 27.5596V25.9551L6.73891 13.761C6.95284 13.3331 8.34341 11.8998 9.62702 12.1565C11.0072 16.1386 12.2711 17.681 16.045 18.2536L15.7241 25.9551ZM9.94792 29.8059C12.4291 29.8059 14.4405 27.7945 14.4405 25.3133C14.4405 22.8321 12.4291 20.8207 9.94792 20.8207C7.46672 20.8207 5.45531 22.8321 5.45531 25.3133C5.45531 27.7945 7.46672 29.8059 9.94792 29.8059Z" fill="#085681"/>
<path d="M11.5524 12.1565C14.9204 12.6379 16.7396 12.696 19.8958 12.1565C20.8585 17.2909 11.8733 19.2163 11.5524 12.1565Z" fill="#085681"/>
</svg>
