<svg width="107" height="36" viewBox="0 0 107 36" fill="none" xmlns="http://www.w3.org/2000/svg">
<path d="M15.4826 13.3123C16.656 13.3123 17.8294 13.3449 18.992 13.3014C19.4592 13.2905 19.6113 13.4644 19.7091 13.8772C20.2849 16.3218 20.8825 18.7556 21.5018 21.3306C21.5996 21.059 21.6539 20.9177 21.6974 20.7765C22.3167 18.4622 22.9468 16.148 23.5553 13.8338C23.6639 13.4318 23.8269 13.2797 24.2506 13.3014C25.0221 13.3449 25.7826 13.334 26.554 13.3014C26.9017 13.2905 27.0429 13.3992 27.1407 13.7469C27.7709 16.1371 28.4228 18.5274 29.0747 20.9069C29.0964 20.972 29.1181 21.0372 29.1725 21.2002C29.4441 20.6461 29.5093 20.1246 29.6288 19.6248C30.1068 17.6908 30.5849 15.7569 31.0304 13.812C31.1173 13.4426 31.2368 13.2688 31.6714 13.2905C32.7036 13.334 33.7466 13.3123 34.7788 13.3014C35.1699 13.2905 35.2242 13.3992 35.1047 13.7577C33.8227 17.8321 32.5515 21.9173 31.2911 26.0025C31.1933 26.3176 31.0521 26.4263 30.737 26.4154C29.8352 26.3937 28.9334 26.3937 28.0316 26.4154C27.6622 26.4263 27.5427 26.2741 27.4558 25.9482C26.7604 23.3189 26.0542 20.7004 25.348 18.0711C25.1416 18.158 25.1742 18.3319 25.1307 18.4731C24.5005 20.9177 23.8595 23.3732 23.2511 25.8287C23.1424 26.2524 22.9686 26.3719 22.5448 26.3611C21.6974 26.3285 20.8499 26.3285 20.0133 26.3611C19.5678 26.3828 19.3831 26.2415 19.2636 25.8069C18.0902 21.8956 16.8951 17.9951 15.6999 14.0945C15.6456 13.899 15.6456 13.6817 15.4609 13.5296L15.4826 13.3123Z" fill="#42175B"/>
<path d="M91.539 26.3286C90.0396 26.3395 88.5403 26.3395 87.0518 26.3612C86.7584 26.3612 86.6606 26.1656 86.5411 25.9809L84.2595 22.4607C84.053 22.4607 84.0204 22.6454 83.9444 22.754C83.2382 23.8297 82.5319 24.9053 81.8475 25.9918C81.6845 26.2417 81.5215 26.3721 81.2064 26.3612C79.9244 26.3395 78.6314 26.3612 77.3494 26.3503C77.2081 26.3503 77.0234 26.4373 76.9365 26.2526C76.8496 26.0678 77.0234 25.9701 77.0995 25.8505C78.5445 23.8623 79.9787 21.874 81.4454 19.9074C81.7497 19.5054 81.7171 19.2555 81.4346 18.8752C80.196 17.2129 78.99 15.5288 77.784 13.8448C77.6753 13.6927 77.5123 13.5732 77.5015 13.2907C78.9791 13.2907 80.4459 13.2907 81.9126 13.2907C82.1843 13.2907 82.2386 13.5297 82.3364 13.7035C82.9448 14.6814 83.5315 15.6592 84.1834 16.7131C84.8136 15.6918 85.4329 14.7466 85.9761 13.7687C86.2043 13.3667 86.4542 13.2581 86.8888 13.2689C88.2143 13.2907 89.5398 13.2798 90.8871 13.2798C90.898 13.5406 90.7133 13.6709 90.5937 13.823C89.3225 15.5614 88.0513 17.289 86.7693 19.0165C86.6172 19.2338 86.4868 19.3968 86.6932 19.6684C88.2686 21.7762 89.8223 23.884 91.3977 26.0027C91.4303 26.0461 91.4847 26.057 91.539 26.0896V26.3286Z" fill="#42175B"/>
<path d="M45.9784 14.649C46.0219 13.2909 46.0219 13.2909 47.217 13.2909C47.945 13.2909 48.6729 13.3018 49.4009 13.2909C49.7051 13.2801 49.8464 13.3344 49.8464 13.6929C49.8355 17.7781 49.8355 21.8634 49.8464 25.9595C49.8464 26.3071 49.716 26.3723 49.4118 26.3723C48.4882 26.3615 47.5647 26.3397 46.6521 26.3832C46.1197 26.4049 45.9132 26.2419 46.0002 25.7204C46.011 25.5357 46.011 25.351 46.0002 25.1663C45.6959 25.4923 45.4895 25.7639 45.2396 25.9812C44.0988 26.9808 42.7189 27.0785 41.3282 26.8721C37.9275 26.3723 35.5372 23.5909 35.4394 20.1032C35.3416 16.6156 37.569 13.7473 40.9588 13.0193C41.828 12.8237 42.7189 12.8129 43.5881 12.9867C44.5551 13.1823 45.3265 13.7038 45.9784 14.649ZM42.6429 23.1237C44.4791 23.1346 46.0002 21.6352 45.9893 19.8208C45.9784 18.0498 44.5008 16.5504 42.7298 16.5395C40.9154 16.4961 39.3943 17.9303 39.3508 19.7447C39.3074 21.5592 40.7415 23.0802 42.556 23.1237C42.5886 23.1237 42.6103 23.1237 42.6429 23.1237Z" fill="#42175B"/>
<path d="M57.226 16.2351C55.4767 16.2351 53.847 16.2242 52.2172 16.2459C51.8044 16.2459 51.6305 16.1699 51.6631 15.7135C51.7066 15.0399 51.6848 14.3663 51.6631 13.7035C51.6522 13.4102 51.75 13.3015 52.0542 13.3015C55.0312 13.3124 58.0082 13.3124 60.9852 13.3015C61.2895 13.3015 61.3872 13.3884 61.3764 13.6926C61.3547 14.4967 61.3547 15.3007 61.3764 16.1155C61.3872 16.398 61.246 16.5827 61.1048 16.7892L56.8022 22.7649C56.6719 22.9496 56.5415 23.1343 56.4111 23.319C56.5306 23.5146 56.7045 23.4385 56.8457 23.4385C58.2147 23.4494 59.5728 23.4602 60.9309 23.4385C61.2895 23.4385 61.3981 23.5363 61.3872 23.8948C61.3655 24.5685 61.3546 25.2421 61.3872 25.9049C61.409 26.3069 61.246 26.3829 60.8875 26.372C57.9648 26.3612 55.053 26.3612 52.1303 26.372C51.7935 26.372 51.6197 26.2851 51.674 25.9266C51.6848 25.8831 51.6848 25.8505 51.674 25.8071C51.4567 24.3512 51.9347 23.1778 52.88 22.0369C54.2707 20.3746 55.4984 18.5819 56.7914 16.8435C56.9109 16.6696 57.0413 16.4958 57.226 16.2351Z" fill="#42175B"/>
<path d="M73.5567 14.5841C74.2955 13.5737 75.1864 13.0413 76.3055 12.8892C76.6967 12.8349 76.9031 12.8675 76.8814 13.3564C76.8488 14.356 76.8596 15.3555 76.8814 16.3442C76.8814 16.6593 76.8053 16.8114 76.4685 16.7897C76.3164 16.7897 76.1643 16.8114 76.0122 16.8549C74.4911 17.0722 73.8283 17.811 73.8283 19.3538C73.8174 21.4616 73.8066 23.5694 73.8392 25.6881C73.85 26.1879 73.7522 26.3943 73.1873 26.3726C72.2312 26.3183 71.2642 26.3509 70.3081 26.3617C69.9821 26.3617 69.8735 26.2639 69.8735 25.938C69.8843 21.8528 69.8843 17.7676 69.8735 13.6823C69.8735 13.3781 69.9821 13.2912 70.2755 13.2912C71.199 13.3021 72.1225 13.3238 73.0352 13.2803C73.4915 13.2586 73.611 13.4216 73.5567 13.8344C73.5458 14.0843 73.5458 14.3342 73.5567 14.5841Z" fill="#42175B"/>
<path d="M67.0899 19.8753C67.0899 21.8527 67.0791 23.8301 67.1008 25.8075C67.1008 26.2204 67.0247 26.3834 66.5684 26.3725C65.5688 26.3399 64.5693 26.3508 63.5697 26.3725C63.2437 26.3725 63.146 26.2639 63.146 25.9379C63.1568 21.8635 63.1568 17.8001 63.146 13.7257C63.146 13.3454 63.2872 13.2911 63.624 13.2911C64.6236 13.3128 65.6232 13.3128 66.6227 13.2911C67.003 13.2802 67.1117 13.3998 67.1117 13.78C67.0899 15.8118 67.0899 17.8435 67.0899 19.8753Z" fill="#42175B"/>
<path d="M66.7854 10.4223C66.7962 11.3241 66.0791 12.0629 65.1882 12.0738C65.1556 12.0738 65.1339 12.0738 65.1013 12.0738C64.1778 12.0738 63.4281 11.3241 63.4281 10.3897C63.4281 10.3897 63.4281 10.3897 63.4281 10.3789C63.4498 9.45533 64.1995 8.71652 65.1339 8.70565C66.0574 8.72738 66.7962 9.48793 66.7854 10.4223C66.7854 10.4115 66.7854 10.4115 66.7854 10.4223Z" fill="#42175B"/>
</svg>
