<svg width="154" height="26" viewBox="0 0 154 26" fill="none" xmlns="http://www.w3.org/2000/svg">
<path d="M0 24.8648H4.2602V16.5649L6.3903 14.0434L13.025 24.8648H18.0535L9.42832 11.3117L17.5297 1.26075H12.2568L6.07602 9.56069C5.51731 10.3662 4.92368 11.2067 4.36496 12.1172H4.2602V1.26075H0V24.8648ZM19.5877 24.8648H23.8828V14.6387C23.8828 14.1834 23.9178 13.7282 24.0574 13.3429C24.5463 12.0472 25.7336 10.9265 27.4097 10.9265C29.7843 10.9265 30.6922 12.8176 30.6922 15.2691V24.8648H34.9873V14.8138C34.9873 9.35056 31.9493 7.42442 29.0509 7.42442C27.9684 7.42442 26.9558 7.70458 26.0828 8.19487C25.2098 8.65015 24.4765 9.31554 23.9527 10.121H23.8828V0H19.5877V24.8648ZM52.0724 14.6387C52.0724 10.8915 50.501 7.42442 45.0535 7.42442C42.3647 7.42442 40.1648 8.15985 38.9077 8.93031L39.7457 11.732C40.8981 10.9965 42.6441 10.4712 44.3202 10.4712C47.3233 10.4712 47.7773 12.3273 47.7773 13.448V13.7282C41.4917 13.6931 37.6855 15.8995 37.6855 20.172C37.6855 22.7635 39.6061 25.25 43.0282 25.25C45.263 25.25 47.0439 24.3045 48.0566 22.9737H48.1614L48.4757 24.8648H52.3517C52.1422 23.8142 52.0724 22.3083 52.0724 20.7674V14.6387ZM47.882 18.8762C47.882 19.1914 47.882 19.5066 47.7773 19.8218C47.3582 21.0475 46.136 22.1682 44.39 22.1682C43.0282 22.1682 41.9457 21.3977 41.9457 19.7167C41.9457 17.1252 44.844 16.4948 47.882 16.5298V18.8762ZM56.4007 4.62275V7.80964H53.9913V11.0316H56.4007V19.0513C56.4007 21.2927 56.8198 22.8686 57.7626 23.8492C58.5658 24.7247 59.8578 25.25 61.4641 25.25C62.791 25.25 63.9434 25.0399 64.572 24.7947L64.5021 21.5378C64.0132 21.6779 63.5942 21.7129 62.826 21.7129C61.1847 21.7129 60.626 20.6623 60.626 18.561V11.0316H64.7116V7.80964H60.626V3.43204L56.4007 4.62275ZM80.446 14.6387C80.446 10.8915 78.8746 7.42442 73.4272 7.42442C70.7383 7.42442 68.5384 8.15985 67.2813 8.93031L68.1194 11.732C69.2717 10.9965 71.0177 10.4712 72.6939 10.4712C75.6969 10.4712 76.1509 12.3273 76.1509 13.448V13.7282C69.8654 13.6931 66.0591 15.8995 66.0591 20.172C66.0591 22.7635 67.9797 25.25 71.4018 25.25C73.6367 25.25 75.4176 24.3045 76.4303 22.9737H76.535L76.8493 24.8648H80.7254C80.5159 23.8142 80.446 22.3083 80.446 20.7674V14.6387ZM76.2557 18.8762C76.2557 19.1914 76.2557 19.5066 76.1509 19.8218C75.7319 21.0475 74.5097 22.1682 72.7637 22.1682C71.4018 22.1682 70.3193 21.3977 70.3193 19.7167C70.3193 17.1252 73.2176 16.4948 76.2557 16.5298V18.8762ZM84.63 24.7947C85.6426 24.9348 87.2489 25.0749 89.3441 25.0749C93.1853 25.0749 95.8392 24.3745 97.4455 22.8686C98.6677 21.7479 99.4708 20.172 99.4708 18.1408C99.4708 14.6387 96.8519 12.7826 94.617 12.2573V12.1522C97.0614 11.2767 98.5978 9.28052 98.5978 6.96915C98.5978 5.11304 97.8296 3.71221 96.6074 2.80167C95.1757 1.61096 93.2202 1.08565 90.1822 1.08565C88.087 1.08565 85.9569 1.29577 84.63 1.61096V24.7947ZM87.668 3.64217C88.1569 3.5371 88.96 3.43204 90.3568 3.43204C93.4297 3.43204 95.49 4.55271 95.49 7.28433C95.49 9.56069 93.6043 11.2767 90.4266 11.2767H87.668V3.64217ZM87.668 13.5531H90.1822C93.4996 13.5531 96.2582 14.9189 96.2582 18.1058C96.2582 21.5378 93.3599 22.6935 90.2171 22.6935C89.1346 22.6935 88.2965 22.6585 87.668 22.5534V13.5531ZM110.047 7.5645C105.403 7.5645 101.667 10.8915 101.667 16.5298C101.667 21.888 105.228 25.25 109.768 25.25C113.819 25.25 118.184 22.5184 118.184 16.2497C118.184 11.1016 114.901 7.5645 110.047 7.5645ZM109.977 9.87587C113.609 9.87587 115.041 13.483 115.041 16.3547C115.041 20.172 112.841 22.9386 109.908 22.9386C106.905 22.9386 104.809 20.137 104.809 16.4248C104.809 13.2379 106.381 9.87587 109.977 9.87587ZM128.514 7.5645C123.87 7.5645 120.134 10.8915 120.134 16.5298C120.134 21.888 123.695 25.25 128.235 25.25C132.286 25.25 136.651 22.5184 136.651 16.2497C136.651 11.1016 133.368 7.5645 128.514 7.5645ZM128.444 9.87587C132.076 9.87587 133.508 13.483 133.508 16.3547C133.508 20.172 131.308 22.9386 128.375 22.9386C125.371 22.9386 123.276 20.137 123.276 16.4248C123.276 13.2379 124.848 9.87587 128.444 9.87587ZM142.861 0H139.823V24.8648H142.861V18.491L144.432 16.74L150.229 24.8648H154L146.562 14.8839L153.057 7.91471H149.391L144.397 13.7632C143.908 14.3585 143.35 15.094 142.93 15.6893H142.861V0Z" fill="#A3131D"/>
</svg>
