<svg width="48" height="48" viewBox="0 0 48 48" fill="none" xmlns="http://www.w3.org/2000/svg">
<path d="M33.621 19.3905C34.3245 17.952 35.544 16.8705 37.0605 16.3485C37.695 16.1295 38.349 16.0455 39 16.0425V7.5C39 5.019 36.981 3 34.5 3H10.5C8.019 3 6 5.019 6 7.5V37.5C6 39.981 8.019 42 10.5 42H25.4235L25.2615 41.529C24.609 39.6255 24.7365 37.5915 25.617 35.793L33.621 19.3905ZM12 12H30C30.8295 12 31.5 12.672 31.5 13.5C31.5 14.328 30.8295 15 30 15H12C11.1705 15 10.5 14.328 10.5 13.5C10.5 12.672 11.1705 12 12 12ZM12 18H28.5C29.3295 18 30 18.672 30 19.5C30 20.328 29.3295 21 28.5 21H12C11.1705 21 10.5 20.328 10.5 19.5C10.5 18.672 11.1705 18 12 18ZM22.5 33H12C11.1705 33 10.5 32.328 10.5 31.5C10.5 30.672 11.1705 30 12 30H22.5C23.3295 30 24 30.672 24 31.5C24 32.328 23.3295 33 22.5 33ZM12 27C11.1705 27 10.5 26.328 10.5 25.5C10.5 24.672 11.1705 24 12 24H25.5C26.3295 24 27 24.672 27 25.5C27 26.328 26.3295 27 25.5 27H12ZM44.406 24.6525L36.399 41.061C35.8695 42.1425 34.953 42.9525 33.8175 43.3425L30.981 44.3175C30.8205 44.373 30.654 44.4 30.4935 44.4C29.871 44.4 29.289 44.01 29.076 43.3875L28.0995 40.551C27.708 39.411 27.7845 38.19 28.3125 37.1115L36.3195 20.706C36.669 19.986 37.281 19.446 38.0385 19.185C38.7945 18.924 39.609 18.972 40.329 19.326L43.026 20.6415C43.746 20.9925 44.286 21.6045 44.547 22.362C44.808 23.1195 44.7585 23.9325 44.406 24.6525Z" fill="black"/>
</svg>
