<svg width="77" height="22" viewBox="0 0 77 22" fill="none" xmlns="http://www.w3.org/2000/svg">
<path d="M20.0208 0H23.5629V21.8687H20.0208V0Z" fill="#17313B"/>
<path d="M35.8836 14.9385C35.8836 18.3266 33.1115 18.6346 32.1874 18.6346C30.0314 18.6346 29.7234 16.6325 29.7234 15.5545V7.08423H26.1812V15.4005C26.1812 17.4026 26.7973 19.2506 28.0293 20.3287C29.1073 21.4067 30.4934 21.8687 32.1874 21.8687C33.4195 21.8687 34.9595 21.5607 35.8836 20.6367V21.8687H39.4257V7.08423H35.8836V14.9385Z" fill="#17313B"/>
<path d="M46.3567 1.69344H42.8146V7.08362H40.1965V10.4717H42.8146V21.8681H46.3567V10.4717H48.9748V7.08362H46.3567V1.69344Z" fill="#17313B"/>
<path d="M60.0615 17.4026C59.2915 18.0186 58.2134 18.4806 57.1354 18.4806C54.6713 18.4806 52.9773 16.6326 52.9773 14.1685C52.9773 11.7044 54.6713 10.0103 57.1354 10.0103C58.2134 10.0103 59.2915 10.3184 60.0615 11.0884L60.5235 11.5504L62.9876 9.24032L62.3716 8.7783C60.9855 7.54626 59.1375 6.77624 57.1354 6.77624C52.8233 6.77624 49.5892 10.0103 49.5892 14.3225C49.5892 18.6346 52.8233 21.8687 57.1354 21.8687C59.1375 21.8687 60.9855 21.0987 62.3716 19.8667L62.9876 19.4046L60.5235 16.9406L60.0615 17.4026Z" fill="#17313B"/>
<path d="M75.46 8.31627C74.3819 7.23824 73.3039 6.77622 71.6098 6.77622C70.3778 6.77622 69.1457 7.08423 68.2217 8.00826V0H64.6796V21.8687H68.2217V13.7065C68.2217 10.3183 70.5318 10.0103 71.4558 10.0103C73.6119 10.0103 73.4579 12.0124 73.4579 13.0904V21.7147H77V13.2444C77 11.2424 76.538 9.39431 75.46 8.31627Z" fill="#17313B"/>
<path d="M56.9801 16.7862C58.341 16.7862 59.4442 15.683 59.4442 14.3221C59.4442 12.9613 58.341 11.858 56.9801 11.858C55.6193 11.858 54.516 12.9613 54.516 14.3221C54.516 15.683 55.6193 16.7862 56.9801 16.7862Z" fill="#EF4335"/>
<path d="M15.0925 16.4793C13.8605 17.7113 12.0124 18.4813 10.0103 18.4813C6.1602 18.4813 3.38811 15.4012 3.38811 11.2431C3.38811 7.08496 6.1602 4.00486 10.1643 4.00486C12.0124 4.00486 13.8605 4.77488 15.2465 6.16093L15.7085 6.62294L18.0186 4.31287L17.5566 3.85085C15.5545 1.84878 12.9364 0.77075 10.1643 0.77075C4.31214 0.616745 0 5.2369 0 11.2431C0 17.2493 4.31214 21.8694 10.0103 21.8694C12.7824 21.8694 15.5545 20.7914 17.4026 18.7893L17.8646 18.3273L15.5545 16.0172L15.0925 16.4793Z" fill="#17313B"/>
</svg>
