<svg width="56" height="56" viewBox="0 0 56 56" fill="none" xmlns="http://www.w3.org/2000/svg">
<path d="M14 17.5002C14 16.5342 13.216 15.7502 12.25 15.7502H1.75C0.784 15.7502 0 16.5342 0 17.5002C0 18.4662 0.784 19.2502 1.75 19.2502H12.25C13.216 19.2502 14 18.4662 14 17.5002Z" fill="#FFC107"/>
<path d="M12.25 22.7505H5.25C4.284 22.7505 3.5 23.5345 3.5 24.5005C3.5 25.4665 4.284 26.2505 5.25 26.2505H12.25C13.216 26.2505 14 25.4665 14 24.5005C14 23.5345 13.216 22.7505 12.25 22.7505Z" fill="#FFC107"/>
<path d="M12.25 29.7505H8.75C7.784 29.7505 7 30.5345 7 31.5005C7 32.4665 7.784 33.2505 8.75 33.2505H12.25C13.216 33.2505 14 32.4665 14 31.5005C14 30.5345 13.216 29.7505 12.25 29.7505Z" fill="#FFC107"/>
<path d="M55.7515 28.8507L50.5015 20.1007C50.1865 19.5722 49.616 19.2502 49 19.2502H36.75C35.784 19.2502 35 20.0342 35 21.0002V38.5002C35 39.4662 35.784 40.2502 36.75 40.2502H54.25C55.216 40.2502 56 39.4662 56 38.5002V29.7502C56 29.4317 55.916 29.1202 55.7515 28.8507Z" fill="#F44336"/>
<path d="M42 22.7502H48.0095L52.2095 29.7502H42V22.7502Z" fill="#FAFAFA"/>
<path d="M36.75 12.2502H12.25C11.284 12.2502 10.5 13.0342 10.5 14.0002V38.5002C10.5 39.4662 11.284 40.2502 12.25 40.2502H38.5V14.0002C38.5 13.0342 37.716 12.2502 36.75 12.2502Z" fill="#FFC107"/>
<path d="M47.25 42.0002C49.183 42.0002 50.75 40.4332 50.75 38.5002C50.75 36.5672 49.183 35.0002 47.25 35.0002C45.317 35.0002 43.75 36.5672 43.75 38.5002C43.75 40.4332 45.317 42.0002 47.25 42.0002Z" fill="#FAFAFA"/>
<path d="M47.25 43.7502C44.3555 43.7502 42 41.3947 42 38.5002C42 35.6057 44.3555 33.2502 47.25 33.2502C50.1445 33.2502 52.5 35.6057 52.5 38.5002C52.5 41.3947 50.1445 43.7502 47.25 43.7502ZM47.25 36.7502C46.2875 36.7502 45.5 37.5377 45.5 38.5002C45.5 39.4627 46.2875 40.2502 47.25 40.2502C48.2125 40.2502 49 39.4627 49 38.5002C49 37.5377 48.2125 36.7502 47.25 36.7502Z" fill="#455A64"/>
<path d="M38.5 40.2502H12.25C11.284 40.2502 10.5 39.4662 10.5 38.5002V33.2502H38.5V40.2502Z" fill="#F44336"/>
<path d="M22.75 42.0002C24.683 42.0002 26.25 40.4332 26.25 38.5002C26.25 36.5672 24.683 35.0002 22.75 35.0002C20.817 35.0002 19.25 36.5672 19.25 38.5002C19.25 40.4332 20.817 42.0002 22.75 42.0002Z" fill="#FAFAFA"/>
<path d="M22.75 43.7502C19.8555 43.7502 17.5 41.3947 17.5 38.5002C17.5 35.6057 19.8555 33.2502 22.75 33.2502C25.6445 33.2502 28 35.6057 28 38.5002C28 41.3947 25.6445 43.7502 22.75 43.7502ZM22.75 36.7502C21.784 36.7502 21 37.5377 21 38.5002C21 39.4627 21.784 40.2502 22.75 40.2502C23.716 40.2502 24.5 39.4627 24.5 38.5002C24.5 37.5377 23.716 36.7502 22.75 36.7502Z" fill="#455A64"/>
</svg>
