<svg width="11" height="7" viewBox="0 0 11 7" fill="none" xmlns="http://www.w3.org/2000/svg">
<mask id="mask0_1_1687" style="mask-type:luminance" maskUnits="userSpaceOnUse" x="0" y="-3" width="11" height="12">
<path d="M0 -2.29129H11V8.70874H0V-2.29129Z" fill="white"/>
</mask>
<g mask="url(#mask0_1_1687)">
<path fill-rule="evenodd" clip-rule="evenodd" d="M10.8658 0.134242C11.0448 0.313235 11.0448 0.603434 10.8658 0.782428L6.51161 5.1366C6.33263 5.31558 6.04241 5.31558 5.86343 5.1366L3.89585 3.16902L0.782428 6.28244C0.603434 6.46142 0.313234 6.46142 0.134243 6.28244C-0.0447477 6.10346 -0.0447477 5.81324 0.134243 5.63426L3.57175 2.19675C3.75075 2.01776 4.04095 2.01776 4.21994 2.19675L6.18752 4.16434L10.2176 0.134242C10.3966 -0.0447472 10.6868 -0.0447472 10.8658 0.134242Z" fill="#008DDC"/>
<path fill-rule="evenodd" clip-rule="evenodd" d="M7.33292 0.458335C7.33292 0.205206 7.53812 0 7.79126 0H10.5413C10.7944 0 10.9996 0.205206 10.9996 0.458335V3.20834C10.9996 3.46148 10.7944 3.66668 10.5413 3.66668C10.2881 3.66668 10.0829 3.46148 10.0829 3.20834V0.916669H7.79126C7.53812 0.916669 7.33292 0.711464 7.33292 0.458335Z" fill="#008DDC"/>
</g>
</svg>
