<svg width="32" height="32" viewBox="0 0 32 32" fill="none" xmlns="http://www.w3.org/2000/svg">
<g clip-path="url(#clip0_1_3457)">
<path d="M30.1805 13.6358C29.688 13.2727 29.0675 12.8191 28.9924 12.5228C29.0239 11.9492 29.1877 11.3907 29.471 10.8908C29.905 9.8947 30.353 8.86242 29.8549 8.004C29.3569 7.14558 28.2244 7.00648 27.135 6.89098C26.5704 6.8872 26.0141 6.75442 25.5087 6.50282C25.2567 5.99558 25.1243 5.43728 25.1219 4.87089C24.9995 3.78155 24.8728 2.65464 24.0089 2.15099C23.1449 1.64734 22.1112 2.08838 21.1151 2.528C20.6148 2.81109 20.0558 2.97485 19.4818 3.0066C19.1813 2.92593 18.7291 2.31096 18.3688 1.81846C17.7372 0.96702 17.0262 0.00151825 15.9995 0.00151825C14.9727 0.00151825 14.2618 0.96702 13.6343 1.81846C13.2698 2.31233 12.8176 2.93148 12.5213 3.00797C11.9478 2.97341 11.3894 2.80985 10.888 2.52937C9.88631 2.08832 8.85403 1.64871 7.99842 2.14401C7.1428 2.63932 6.99953 3.77457 6.87705 4.87083C6.87308 5.43526 6.74082 5.99141 6.49027 6.49721C5.98577 6.74523 5.43164 6.87552 4.86949 6.87839C3.77878 7.0008 2.65043 7.12745 2.14822 7.99141C1.646 8.85537 2.08711 9.88778 2.52672 10.8853C2.81086 11.3867 2.97468 11.9473 3.00533 12.5228C2.92466 12.8233 2.30969 13.2769 1.81719 13.6358C0.965746 14.2619 0.000244141 14.9742 0.000244141 16.0009C0.000244141 17.0277 0.965746 17.74 1.81862 18.3661C2.31112 18.7292 2.93164 19.1828 3.00677 19.4791C2.9752 20.0527 2.81138 20.6112 2.52816 21.111C2.09409 22.1072 1.64613 23.1395 2.14417 23.9979C2.64222 24.8563 3.77473 24.9954 4.86408 25.1109C5.4287 25.1147 5.98498 25.2474 6.49046 25.499C6.74245 26.0063 6.87477 26.5646 6.87725 27.131C6.99966 28.2203 7.1263 29.3472 7.99027 29.8509C8.85423 30.3545 9.8796 29.901 10.8771 29.4669C11.3825 29.1869 11.9447 29.0252 12.5216 28.9939C12.8221 29.0746 13.2742 29.6895 13.6346 30.182C14.262 31.0335 14.973 31.999 15.9997 31.999C17.0265 31.999 17.7374 31.0335 18.3649 30.182C18.7293 29.6882 19.1815 29.069 19.4779 28.9925C20.0518 29.025 20.6105 29.1887 21.1112 29.4711C22.1073 29.9052 23.1396 30.3504 23.9966 29.8565C24.8536 29.3626 24.9955 28.2259 25.118 27.1352C25.1219 26.5708 25.2542 26.0146 25.5047 25.5088C26.0102 25.2588 26.5658 25.127 27.1297 25.1235C28.2204 25.0011 29.3487 24.8744 29.851 24.0105C30.3532 23.1465 29.8997 22.1211 29.467 21.1236C29.1838 20.6196 29.0218 20.0566 28.994 19.4792C29.0747 19.1786 29.6896 18.7251 30.1821 18.3661C31.0336 17.7387 32.0005 17.0264 32.0005 16.001C32.0005 14.9756 31.0333 14.2619 30.1805 13.6358Z" fill="#FFC107"/>
<path d="M11.8249 19.4777C11.606 19.4777 11.3998 19.3746 11.2685 19.1994L8.34685 15.304V18.7821C8.34685 19.1663 8.03539 19.4777 7.65121 19.4777C7.26703 19.4777 6.95557 19.1663 6.95557 18.7821V13.2171C6.95557 12.8329 7.26703 12.5215 7.65121 12.5215C7.87014 12.5215 8.07634 12.6246 8.20769 12.7997L11.1293 16.6952V13.2171C11.1293 12.8329 11.4408 12.5215 11.8249 12.5215C12.2091 12.5215 12.5206 12.8329 12.5206 13.2171V18.7821C12.5204 19.0813 12.3287 19.347 12.0448 19.4415C11.974 19.4655 11.8997 19.4777 11.8249 19.4777Z" fill="#FAFAFA"/>
<path d="M17.39 19.4777H14.6075C14.2233 19.4777 13.9119 19.1663 13.9119 18.7821V13.2171C13.9119 12.8329 14.2233 12.5215 14.6075 12.5215H17.39C17.7742 12.5215 18.0857 12.8329 18.0857 13.2171C18.0857 13.6013 17.7742 13.9128 17.39 13.9128H15.3032V18.0865H17.39C17.7742 18.0865 18.0857 18.398 18.0857 18.7821C18.0857 19.1663 17.7742 19.4777 17.39 19.4777Z" fill="#FAFAFA"/>
<path d="M17.39 16.6953H14.6075C14.2233 16.6953 13.9119 16.3839 13.9119 15.9997C13.9119 15.6155 14.2233 15.3041 14.6075 15.3041H17.39C17.7742 15.3041 18.0857 15.6155 18.0857 15.9997C18.0857 16.3839 17.7742 16.6953 17.39 16.6953Z" fill="#FAFAFA"/>
<path d="M24.3461 19.4778C24.0463 19.4782 23.78 19.2865 23.6853 19.002L22.9549 16.808L22.2245 19.002C22.1356 19.3022 21.8494 19.4998 21.5372 19.4765C21.2282 19.4647 20.9641 19.2505 20.8889 18.9506L19.4976 13.3856C19.4046 13.0126 19.6317 12.6348 20.0047 12.5418C20.3778 12.4488 20.7556 12.6759 20.8486 13.0489L21.6596 16.2961L22.2954 14.3887C22.4607 14.0241 22.8903 13.8625 23.2549 14.0278C23.4149 14.1004 23.5432 14.2286 23.6157 14.3887L24.2515 16.2961L25.0626 13.0489C25.1556 12.6759 25.5333 12.4488 25.9064 12.5418C26.2794 12.6348 26.5065 13.0125 26.4135 13.3856L25.0223 18.9506C24.9471 19.2505 24.6829 19.4647 24.374 19.4765L24.3461 19.4778Z" fill="#FAFAFA"/>
</g>
<defs>
<clipPath id="clip0_1_3457">
<rect width="32" height="32" fill="white"/>
</clipPath>
</defs>
</svg>
