<svg width="32" height="21" viewBox="0 0 32 21" fill="none" xmlns="http://www.w3.org/2000/svg">
<path fill-rule="evenodd" clip-rule="evenodd" d="M30.5645 7.04783C30.1818 6.31435 29.6875 5.59681 29.0816 4.9271C27.6943 3.42824 25.7331 2.18451 23.421 1.32346C21.093 0.462414 18.4142 0 15.7194 0C13.0087 0 10.3458 0.462414 8.01782 1.32346C5.6898 2.18451 3.72853 3.42824 2.34129 4.9271C1.71942 5.59681 1.22511 6.2984 0.842426 7.04783C3.85609 6.33029 9.02238 5.35763 13.806 5.26196C14.2684 5.24601 14.5873 5.40546 14.7946 5.66059C15.0497 5.9795 15.0338 7.1435 15.0178 7.65375L14.8743 20.984C15.1454 21 15.4164 21 15.6875 21C15.9586 21 16.2297 21 16.5007 20.984L16.3572 7.65375C16.3572 7.1435 16.3253 5.9795 16.5805 5.66059C16.7877 5.38952 17.1067 5.24601 17.5691 5.26196C22.4005 5.35763 27.5508 6.31435 30.5645 7.04783Z" fill="#42175B"/>
<path fill-rule="evenodd" clip-rule="evenodd" d="M31.2041 8.78594C26.8032 7.78139 23.8533 7.60599 20.9353 7.44654C18.4 7.30303 18.3681 8.21191 18.6232 9.93401C18.6392 10.0456 18.6551 10.1732 18.687 10.3167C19.5321 15.3554 20.6004 19.6925 20.7758 20.426C26.9626 19.0069 31.4114 15.1003 31.4114 10.4921C31.4114 9.91806 31.3476 9.34403 31.2041 8.78594Z" fill="#42175B"/>
<path fill-rule="evenodd" clip-rule="evenodd" d="M12.7881 9.934C13.0433 8.21191 13.0114 7.30303 10.4761 7.44654C7.55808 7.60599 4.62414 7.79733 0.207289 8.78594C0.0797265 9.34403 0 9.91806 0 10.508C0 12.5012 0.813211 14.4146 2.34396 16.073C3.7312 17.5718 5.69248 18.8155 8.00455 19.6766C8.84965 19.9955 9.72665 20.2347 10.6355 20.442C10.8109 19.7563 11.8952 15.3235 12.7563 10.2051C12.7722 10.0935 12.7881 10.0137 12.7881 9.934Z" fill="#42175B"/>
</svg>
