<svg width="56" height="56" viewBox="0 0 56 56" fill="none" xmlns="http://www.w3.org/2000/svg">
<path d="M41.9987 53.6673H13.9987C13.3799 53.6673 12.7864 53.4215 12.3488 52.9839C11.9112 52.5463 11.6654 51.9528 11.6654 51.334C11.6654 50.7151 11.9112 50.1217 12.3488 49.6841C12.7864 49.2465 13.3799 49.0007 13.9987 49.0007H41.9987C42.6175 49.0007 43.211 49.2465 43.6486 49.6841C44.0862 50.1217 44.332 50.7151 44.332 51.334C44.332 51.9528 44.0862 52.5463 43.6486 52.9839C43.211 53.4215 42.6175 53.6673 41.9987 53.6673ZM53.6654 14.0007V32.6673C53.6654 34.1994 53.3636 35.7165 52.7773 37.132C52.191 38.5474 51.3316 39.8335 50.2483 40.9169C49.1649 42.0002 47.8788 42.8596 46.4633 43.4459C45.0479 44.0322 43.5308 44.334 41.9987 44.334H13.9987C12.4666 44.334 10.9495 44.0322 9.53406 43.4459C8.11859 42.8596 6.83247 42.0002 5.74912 40.9169C3.56119 38.729 2.33203 35.7615 2.33203 32.6673V14.0007C2.33203 10.9065 3.56119 7.939 5.74912 5.75107C7.93704 3.56315 10.9045 2.33398 13.9987 2.33398H41.9987C43.5308 2.33398 45.0479 2.63575 46.4633 3.22206C47.8788 3.80836 49.1649 4.66772 50.2483 5.75107C51.3316 6.83442 52.191 8.12055 52.7773 9.53601C53.3636 10.9515 53.6654 12.4686 53.6654 14.0007ZM11.6654 18.6673C11.6654 19.2862 11.9112 19.8797 12.3488 20.3172C12.7864 20.7548 13.3799 21.0007 13.9987 21.0007H27.9987C28.6175 21.0007 29.211 20.7548 29.6486 20.3172C30.0862 19.8797 30.332 19.2862 30.332 18.6673C30.332 18.0485 30.0862 17.455 29.6486 17.0174C29.211 16.5798 28.6175 16.334 27.9987 16.334H13.9987C13.3799 16.334 12.7864 16.5798 12.3488 17.0174C11.9112 17.455 11.6654 18.0485 11.6654 18.6673ZM44.332 28.0007C44.332 27.3818 44.0862 26.7883 43.6486 26.3507C43.211 25.9132 42.6175 25.6673 41.9987 25.6673H13.9987C13.3799 25.6673 12.7864 25.9132 12.3488 26.3507C11.9112 26.7883 11.6654 27.3818 11.6654 28.0007C11.6654 28.6195 11.9112 29.213 12.3488 29.6506C12.7864 30.0882 13.3799 30.334 13.9987 30.334H41.9987C42.6175 30.334 43.211 30.0882 43.6486 29.6506C44.0862 29.213 44.332 28.6195 44.332 28.0007Z" fill="#42175B"/>
</svg>
